<svg width="116.1" height="116.095" xmlns="http://www.w3.org/2000/svg"><path d="M197.951 193.984c0 9.78-7.957 17.738-17.736 17.738-9.782 0-17.738-7.957-17.738-17.738 0-9.781 7.956-17.738 17.738-17.738 9.78 0 17.736 7.957 17.736 17.738m24.33 14.809c.259-.727 1.122-1.34 1.529-1.34h5.348c5.02 0 9.106-4.084 9.106-9.106v-8.727c0-5.021-4.086-9.105-9.106-9.105h-5.347c-.406 0-1.27-.613-1.528-1.34a44.24 44.24 0 0 0-1.873-4.476c-.329-.681-.154-1.708.13-1.994l3.803-3.802c3.55-3.55 3.55-9.327 0-12.877l-6.17-6.169a9.048 9.048 0 0 0-6.439-2.666c-2.433 0-4.72.948-6.44 2.668l-3.8 3.8c-.118.118-.524.308-1.109.308-.332 0-.654-.064-.885-.176a44.357 44.357 0 0 0-4.475-1.871c-.728-.258-1.342-1.123-1.342-1.528v-5.348c0-5.023-4.085-9.106-9.105-9.106h-8.727c-5.02 0-9.105 4.083-9.105 9.106v5.348c0 .406-.614 1.268-1.34 1.526a44.507 44.507 0 0 0-4.479 1.873c-.23.11-.552.174-.885.174-.584 0-.99-.188-1.108-.306l-3.801-3.8a9.047 9.047 0 0 0-6.44-2.667 9.045 9.045 0 0 0-6.437 2.667l-6.17 6.169c-3.55 3.551-3.55 9.329 0 12.878l3.8 3.8c.286.286.462 1.313.133 1.993a44.41 44.41 0 0 0-1.873 4.477c-.258.727-1.123 1.342-1.528 1.342h-5.348c-5.02 0-9.106 4.084-9.106 9.105v8.727c0 5.02 4.084 9.106 9.104 9.106h5.348c.407 0 1.27.613 1.528 1.34a44.047 44.047 0 0 0 1.873 4.475c.33.682.155 1.709-.13 1.994l-3.802 3.802a9.047 9.047 0 0 0-2.667 6.44c0 2.432.948 4.718 2.669 6.438l6.169 6.168a9.048 9.048 0 0 0 6.439 2.667 9.043 9.043 0 0 0 6.438-2.667l3.801-3.802c.119-.118.526-.307 1.11-.307.332 0 .654.063.885.175a44.27 44.27 0 0 0 4.475 1.872c.728.258 1.342 1.123 1.342 1.528v5.348c0 5.022 4.085 9.106 9.105 9.106h8.727c5.02 0 9.105-4.084 9.105-9.106v-5.347c0-.406.614-1.268 1.34-1.526a44.34 44.34 0 0 0 4.476-1.873c.23-.112.554-.176.886-.176.585 0 .99.19 1.11.308l3.801 3.802a9.047 9.047 0 0 0 6.44 2.666 9.045 9.045 0 0 0 6.438-2.666l6.169-6.17c3.55-3.55 3.55-9.327 0-12.877l-3.8-3.8c-.286-.285-.462-1.314-.133-1.994a44.981 44.981 0 0 0 1.872-4.481" style="fill:#e5e5e5;fill-opacity:1;fill-rule:nonzero;stroke:none;stroke-width:.387233" transform="translate(-122.164 -135.938)"/></svg>