<?xml version="1.0" encoding="UTF-8" standalone="no"?>
<!-- Created with Inkscape (http://www.inkscape.org/) -->

<svg
   width="180"
   height="180"
   viewBox="0 0 223.0906 223.09564"
   version="1.1"
   id="SVGRoot"
   sodipodi:docname="illustration_zahnrad_big_small.svg"
   inkscape:version="1.1 (c68e22c387, 2021-05-23)"
   xmlns:inkscape="http://www.inkscape.org/namespaces/inkscape"
   xmlns:sodipodi="http://sodipodi.sourceforge.net/DTD/sodipodi-0.dtd"
   xmlns="http://www.w3.org/2000/svg"
   xmlns:svg="http://www.w3.org/2000/svg">
  <sodipodi:namedview
     id="namedview829"
     pagecolor="#ffffff"
     bordercolor="#666666"
     borderopacity="1.0"
     inkscape:pageshadow="2"
     inkscape:pageopacity="0.0"
     inkscape:pagecheckerboard="0"
     inkscape:document-units="px"
     showgrid="false"
     inkscape:zoom="1"
     inkscape:cx="-25.5"
     inkscape:cy="208.5"
     inkscape:window-width="1920"
     inkscape:window-height="1017"
     inkscape:window-x="1912"
     inkscape:window-y="-8"
     inkscape:window-maximized="1"
     inkscape:current-layer="layer4"
     units="px"
     fit-margin-top="0"
     fit-margin-left="0"
     fit-margin-right="0"
     fit-margin-bottom="0" />
  <defs
     id="defs824">
    <clipPath
       clipPathUnits="userSpaceOnUse"
       id="clipPath2964">
      <path
         d="M 0,800 H 800 V 0 H 0 Z"
         id="path2962" />
    </clipPath>
    <clipPath
       clipPathUnits="userSpaceOnUse"
       id="clipPath2964-9">
      <path
         d="M 0,800 H 800 V 0 H 0 Z"
         id="path2962-8" />
    </clipPath>
    <clipPath
       clipPathUnits="userSpaceOnUse"
       id="clipPath2964-3">
      <path
         d="M 0,800 H 800 V 0 H 0 Z"
         id="path2962-9" />
    </clipPath>
    <clipPath
       clipPathUnits="userSpaceOnUse"
       id="clipPath2964-1">
      <path
         d="M 0,800 H 800 V 0 H 0 Z"
         id="path2962-81" />
    </clipPath>
    <clipPath
       clipPathUnits="userSpaceOnUse"
       id="clipPath2964-2">
      <path
         d="M 0,800 H 800 V 0 H 0 Z"
         id="path2962-6" />
    </clipPath>
  </defs>
  <g
     inkscape:groupmode="layer"
     id="layer4"
     inkscape:label="Layer 3"
     transform="translate(-48.59587,-44.823982)">
    <path
       d="m 0,0 c 0,-56.996 -46.371,-103.367 -103.367,-103.367 -56.996,0 -103.368,46.371 -103.368,103.367 0,56.996 46.372,103.367 103.368,103.367 C -46.371,103.367 0,57 0,0 m 149.417,57.807 h -27.575 c -7.462,0 -16.162,6.753 -19,14.748 -2.63,7.411 -5.718,14.787 -9.171,21.928 -3.676,7.595 -2.324,18.467 2.952,23.742 l 19.631,19.631 c 13.752,13.752 13.752,36.13 0,49.883 l -31.863,31.862 c -6.663,6.663 -15.52,10.331 -24.941,10.331 -9.422,0 -18.279,-3.668 -24.942,-10.331 L 14.877,199.97 c -3.151,-3.151 -8.399,-5.032 -14.034,-5.032 -3.528,0 -6.882,0.721 -9.7,2.085 -7.145,3.457 -14.532,6.549 -21.959,9.191 -7.991,2.837 -14.744,11.537 -14.744,18.996 v 27.579 c 0,19.446 -15.822,35.272 -35.272,35.272 h -45.07 c -19.451,0 -35.273,-15.826 -35.273,-35.272 V 225.21 c 0,-7.462 -6.752,-16.163 -14.743,-18.996 -7.419,-2.634 -14.803,-5.719 -21.94,-9.167 -2.771,-1.341 -6.208,-2.077 -9.68,-2.077 -5.655,0 -10.919,1.885 -14.078,5.043 l -19.599,19.592 c -6.663,6.663 -15.52,10.331 -24.946,10.331 -9.421,0 -18.279,-3.668 -24.941,-10.327 l -31.894,-31.874 c -6.666,-6.659 -10.335,-15.516 -10.339,-24.938 0,-9.421 3.669,-18.279 10.331,-24.941 l 19.631,-19.631 c 5.279,-5.279 6.635,-16.159 2.959,-23.758 -3.445,-7.129 -6.529,-14.501 -9.159,-21.916 -2.837,-7.991 -11.534,-14.744 -18.996,-14.744 h -27.575 c -19.451,0 -35.272,-15.825 -35.272,-35.272 v -45.07 c 0,-19.447 15.821,-35.272 35.272,-35.272 h 27.575 c 7.462,0 16.163,-6.749 19,-14.74 2.626,-7.396 5.71,-14.771 9.167,-21.916 3.672,-7.595 2.312,-18.475 -2.971,-23.758 l -19.631,-19.631 c -13.752,-13.752 -13.752,-36.13 0,-49.883 l 31.906,-31.909 c 6.662,-6.663 15.52,-10.331 24.941,-10.331 9.422,0 18.279,3.668 24.942,10.331 l 19.631,19.631 c 3.158,3.158 8.418,5.044 14.069,5.044 3.524,0 6.871,-0.718 9.681,-2.078 7.14,-3.452 14.516,-6.537 21.919,-9.166 7.992,-2.838 14.744,-11.538 14.744,-19 v -27.579 c 0,-19.447 15.822,-35.273 35.273,-35.273 h 45.07 c 19.45,0 35.272,15.826 35.272,35.273 v 27.579 c 0,7.462 6.753,16.162 14.744,18.996 7.419,2.633 14.802,5.718 21.939,9.167 2.771,1.34 6.208,2.077 9.68,2.077 5.656,0 10.915,-1.885 14.074,-5.044 l 19.631,-19.631 c 6.663,-6.663 15.516,-10.331 24.938,-10.331 9.425,0 18.282,3.672 24.945,10.339 l 31.874,31.894 c 13.745,13.756 13.745,36.134 -0.004,49.886 l -19.615,19.623 c -5.275,5.276 -6.627,16.155 -2.955,23.754 3.449,7.133 6.529,14.513 9.163,21.928 2.833,7.991 11.53,14.74 18.992,14.74 h 27.575 c 19.451,0 35.272,15.825 35.272,35.272 v 45.07 c -0.007,19.459 -15.833,35.28 -35.28,35.28"
       style="display:inline;fill:#e5e5e5;fill-opacity:1;fill-rule:nonzero;stroke:none"
       id="path2968"
       transform="matrix(0.38723412,0,0,-0.38723412,200.1655,156.37103)" />
  </g>
</svg>
