<?xml version="1.0" encoding="UTF-8" standalone="no"?>
<!-- Created with Inkscape (http://www.inkscape.org/) -->

<svg
   width="2.418745in"
   height="2.4186482in"
   viewBox="0 0 232.19952 232.19023"
   version="1.1"
   id="SVGRoot"
   sodipodi:docname="illustration_zahnrad2.svg"
   inkscape:version="1.1 (c68e22c387, 2021-05-23)"
   xmlns:inkscape="http://www.inkscape.org/namespaces/inkscape"
   xmlns:sodipodi="http://sodipodi.sourceforge.net/DTD/sodipodi-0.dtd"
   xmlns="http://www.w3.org/2000/svg"
   xmlns:svg="http://www.w3.org/2000/svg">
  <sodipodi:namedview
     id="namedview829"
     pagecolor="#ffffff"
     bordercolor="#666666"
     borderopacity="1.0"
     inkscape:pageshadow="2"
     inkscape:pageopacity="0.0"
     inkscape:pagecheckerboard="0"
     inkscape:document-units="px"
     showgrid="false"
     inkscape:zoom="1"
     inkscape:cx="138.5"
     inkscape:cy="285.5"
     inkscape:window-width="1920"
     inkscape:window-height="1017"
     inkscape:window-x="1912"
     inkscape:window-y="-8"
     inkscape:window-maximized="1"
     inkscape:current-layer="layer1"
     units="in"
     fit-margin-top="0"
     fit-margin-left="0"
     fit-margin-right="0"
     fit-margin-bottom="0" />
  <defs
     id="defs824">
    <clipPath
       clipPathUnits="userSpaceOnUse"
       id="clipPath2964">
      <path
         d="M 0,800 H 800 V 0 H 0 Z"
         id="path2962" />
    </clipPath>
    <clipPath
       clipPathUnits="userSpaceOnUse"
       id="clipPath2964-9">
      <path
         d="M 0,800 H 800 V 0 H 0 Z"
         id="path2962-8" />
    </clipPath>
  </defs>
  <g
     inkscape:groupmode="layer"
     id="layer1"
     inkscape:label="Layer 1"
     transform="translate(-72.21376,-62.98526)">
    <path
       d="m 223.78804,179.07728 c 0,19.55919 -15.91377,35.47606 -35.47297,35.47606 -19.56229,0 -35.47606,-15.91377 -35.47606,-35.47606 0,-19.5623 15.91377,-35.47607 35.47606,-35.47607 19.5592,0 35.47297,15.91377 35.47297,35.47607 m 48.66139,29.61799 c 0.5158,-1.45368 2.24286,-2.68044 3.05605,-2.68044 h 10.69619 c 10.04097,0 18.21162,-8.16754 18.21162,-18.21084 v -17.45342 c 0,-10.04331 -8.17065,-18.21085 -18.21162,-18.21085 h -10.69309 c -0.81319,0 -2.54025,-1.22676 -3.05605,-2.68043 -1.07496,-3.02585 -2.33425,-6.04008 -3.7461,-8.9513 -0.6583,-1.36229 -0.30901,-3.41696 0.26099,-3.98774 l 7.60373,-7.60373 c 7.09955,-7.10188 7.09955,-18.65462 0,-25.75417 L 264.2331,90.8243 c -3.43941,-3.43864 -8.01342,-5.33299 -12.87863,-5.33299 -4.86599,0 -9.43999,1.89745 -12.87863,5.33609 l -7.60064,7.60063 c -0.23699,0.23621 -1.05018,0.6157 -2.21885,0.6157 -0.66449,0 -1.30808,-0.12779 -1.76966,-0.35238 -2.91665,-1.41108 -5.92778,-2.67037 -8.95053,-3.74223 -1.45677,-0.5158 -2.68353,-2.24596 -2.68353,-3.05605 V 81.19688 c 0,-10.04407 -8.17064,-18.21162 -18.21085,-18.21162 h -17.45341 c -10.04021,0 -18.21085,8.16755 -18.21085,18.21162 v 10.69619 c 0,0.81319 -1.22675,2.53715 -2.68043,3.05295 -3.03824,1.07806 -6.05247,2.34044 -8.95673,3.74533 -0.45848,0.22227 -1.10517,0.34928 -1.76966,0.34928 -1.16867,0 -1.97954,-0.37639 -2.21575,-0.6126 l -7.60373,-7.60063 c -3.43864,-3.43864 -8.01265,-5.33299 -12.87863,-5.33299 -4.86521,0 -9.43612,1.89435 -12.87554,5.33299 L 100.059,103.16545 c -7.09955,7.10265 -7.09955,18.65771 0,25.75727 l 7.60063,7.60063 c 0.57001,0.57 0.92239,2.62544 0.26409,3.98464 -1.41185,2.91432 -2.67114,5.92855 -3.7461,8.9544 -0.51579,1.45367 -2.24596,2.68275 -3.05605,2.68275 H 90.42539 c -10.04099,0 -18.21163,8.16832 -18.21163,18.21163 v 17.45264 c 0,10.04098 8.16755,18.21162 18.20853,18.21162 h 10.69618 c 0.81319,0 2.54026,1.22676 3.05605,2.68043 1.07497,3.02895 2.33425,6.04008 3.74611,8.95053 0.65829,1.36306 0.30901,3.41773 -0.261,3.98851 l -7.60373,7.60373 c -3.43864,3.43864 -5.33299,8.01265 -5.33299,12.87864 0,4.86521 1.89435,9.43612 5.33609,12.87785 l 12.33805,12.33573 c 3.43942,3.43864 8.01343,5.33299 12.87863,5.33299 4.86599,0 9.4369,-1.89435 12.87554,-5.33299 l 7.60373,-7.60373 c 0.23621,-0.23621 1.05018,-0.6157 2.21885,-0.6157 0.6645,0 1.30808,0.12702 1.76966,0.35161 2.91665,1.41186 5.92778,2.67114 8.95053,3.743 1.45678,0.5158 2.68353,2.24596 2.68353,3.05606 v 10.69618 c 0,10.04407 8.17064,18.21162 18.21085,18.21162 h 17.45264 c 10.04098,0 18.21162,-8.16755 18.21162,-18.21162 v -10.69309 c 0,-0.81319 1.22676,-2.53715 2.68043,-3.05295 3.02585,-1.07496 6.03698,-2.33425 8.95053,-3.7461 0.46159,-0.2246 1.10827,-0.35161 1.77276,-0.35161 1.16867,0 1.97954,0.37949 2.21885,0.6157 l 7.60373,7.60373 c 3.43864,3.43864 8.01265,5.33299 12.87864,5.33299 4.86521,0 9.43612,-1.89435 12.87553,-5.33299 l 12.33805,-12.33883 c 7.09955,-7.10187 7.09955,-18.65462 0,-25.75416 l -7.60063,-7.59986 c -0.57001,-0.57079 -0.92239,-2.62855 -0.26409,-3.98851 1.41185,-2.92904 2.67114,-5.94017 3.743,-8.96292"
       style="fill:#e5e5e5;fill-opacity:1;fill-rule:nonzero;stroke:none;stroke-width:0.774466"
       id="path2972" />
  </g>
</svg>
