<svg width="232.2" height="232.19" xmlns="http://www.w3.org/2000/svg"><path d="M223.788 179.077c0 19.56-15.914 35.476-35.473 35.476-19.562 0-35.476-15.913-35.476-35.476 0-19.562 15.914-35.476 35.476-35.476 19.56 0 35.473 15.914 35.473 35.476m48.661 29.618c.516-1.453 2.243-2.68 3.056-2.68h10.697c10.04 0 18.211-8.168 18.211-18.211v-17.453c0-10.044-8.17-18.211-18.211-18.211h-10.693c-.814 0-2.54-1.227-3.056-2.68a88.472 88.472 0 0 0-3.747-8.952c-.658-1.362-.309-3.417.261-3.988l7.604-7.603c7.1-7.102 7.1-18.655 0-25.755l-12.338-12.338a18.097 18.097 0 0 0-12.879-5.333c-4.866 0-9.44 1.898-12.878 5.336l-7.6 7.601c-.238.236-1.051.616-2.22.616-.664 0-1.308-.128-1.77-.353a88.714 88.714 0 0 0-8.95-3.742c-1.457-.516-2.683-2.246-2.683-3.056V81.197c0-10.044-8.171-18.212-18.211-18.212h-17.454c-10.04 0-18.21 8.168-18.21 18.212v10.696c0 .813-1.227 2.537-2.68 3.053a89.011 89.011 0 0 0-8.958 3.745c-.458.223-1.105.35-1.77.35-1.168 0-1.979-.377-2.215-.613l-7.604-7.6a18.094 18.094 0 0 0-12.878-5.334 18.09 18.09 0 0 0-12.876 5.333l-12.338 12.338c-7.1 7.103-7.1 18.658 0 25.758l7.6 7.6c.57.57.923 2.626.265 3.985a88.822 88.822 0 0 0-3.746 8.954c-.516 1.454-2.246 2.683-3.056 2.683H90.425c-10.04 0-18.211 8.168-18.211 18.212v17.452c0 10.041 8.167 18.212 18.208 18.212h10.696c.814 0 2.54 1.227 3.057 2.68a88.09 88.09 0 0 0 3.746 8.951c.658 1.363.309 3.418-.261 3.989l-7.604 7.603a18.094 18.094 0 0 0-5.333 12.879c0 4.865 1.894 9.436 5.336 12.878l12.338 12.335a18.097 18.097 0 0 0 12.879 5.333c4.866 0 9.437-1.894 12.875-5.333l7.604-7.603c.236-.236 1.05-.616 2.219-.616.664 0 1.308.127 1.77.352a88.54 88.54 0 0 0 8.95 3.743c1.457.515 2.684 2.246 2.684 3.056v10.696c0 10.044 8.17 18.211 18.21 18.211h17.453c10.041 0 18.212-8.167 18.212-18.211V266.27c0-.813 1.226-2.537 2.68-3.053a88.683 88.683 0 0 0 8.95-3.746c.462-.225 1.109-.352 1.773-.352 1.169 0 1.98.38 2.22.616l7.603 7.604a18.094 18.094 0 0 0 12.879 5.333 18.09 18.09 0 0 0 12.875-5.333L276.571 255c7.1-7.101 7.1-18.654 0-25.753l-7.6-7.6c-.57-.571-.923-2.629-.265-3.989a89.956 89.956 0 0 0 3.743-8.963" style="fill:#e5e5e5;fill-opacity:1;fill-rule:nonzero;stroke:none;stroke-width:.774466" transform="translate(-72.214 -62.985)"/></svg>