<svg width="600" height="600" viewBox="0 0 500.306 445.123" xmlns="http://www.w3.org/2000/svg"><defs><clipPath clipPathUnits="userSpaceOnUse" id="a"><path d="M0 800h800V0H0Z"/></clipPath></defs><g clip-path="url(#a)" transform="matrix(.77447 0 0 -.77447 -56.537 552.328)" style="display:inline"><g style="fill:#bdd251"><path d="M0 0a11.444 11.444 0 0 0-1.539 5.868c.073 6.465 5.493 11.646 12.108 11.569l.509-.017c1.299 2.827 4.81 4.83 8.917 4.783 4.619-.05 8.425-2.679 9.158-6.084.797.094 1.613.143 2.448.133 2.714-.03 5.249-.639 7.416-1.667a9.39 9.39 0 0 0 8.111 4.466 9.407 9.407 0 0 0 8.425-5.437 13.02 13.02 0 0 0 6.92 1.882c7.011-.081 12.634-5.605 12.556-12.343-.04-3.814-1.907-7.199-4.788-9.402 1.141-1.588 1.801-3.505 1.778-5.565-.062-5.383-4.746-9.692-10.463-9.627-1.074.011-3.077.474-3.077.474-4.477-7.184-17.057-3.805-15.976-2.534-14.211-16.711-29.588-14.621-29.957-14.475 6.06 1.445 9.32 6.384 11.863 12.418a16.014 16.014 0 0 0-5.27-.815c-5.037.058-9.439 2.386-11.94 5.851a14.094 14.094 0 0 0-4.852-.789c-6.876.079-12.394 4.96-12.326 10.9C-9.921-5.24-5.646-.968 0 0" style="fill:#bdd251;fill-opacity:1;fill-rule:nonzero;stroke:none" transform="translate(563.206 535.965)"/></g><g style="fill:#005a80"><path d="M0 0h-196.102c-2.684 0-4.899-1.81-4.899-4.495v-135.328c0-2.685 2.215-5.184 4.899-5.184H.01c2.685 0 4.415 2.501 4.415 5.184V-4.495C4.425-1.81 2.687 0 0 0" style="fill:#005a80;fill-opacity:1;fill-rule:nonzero;stroke:none" transform="translate(697.18 303.446)"/></g><path d="M0 0c0-2.949-.641-4.144-3.419-4.144h-174.166C-180.363-4.144-184-2.949-184 0v112.402c0 2.949 3.637 5.454 6.415 5.454H-3.419c2.778 0 3.419-2.505 3.419-5.454z" style="fill:#fff;fill-opacity:1;fill-rule:nonzero;stroke:none" transform="translate(690 175.144)"/><g style="fill:#005a80"><path d="M0 0a2.044 2.044 0 0 0-2.044-2.044h-236.912A2.044 2.044 0 0 0-241 0v7.912c0 1.129.915 2.044 2.044 2.044H-2.044A2.044 2.044 0 0 0 0 7.912Z" style="fill:#005a80;fill-opacity:1;fill-rule:nonzero;stroke:none" transform="translate(719 144.044)"/></g><g style="fill:#005a80"><path d="m0 0-.056-96.5c-.004-6.083 4.914-10.982 10.992-10.986l139.938-.082c6.06-.003 10.998 4.891 11.001 10.974l.057 96.499c.003 6.064-4.924 10.988-10.988 10.991l-139.939.082C4.927 10.987.004 6.064 0 0" style="fill:#005a80;fill-opacity:1;fill-rule:nonzero;stroke:none" transform="translate(74.032 702.192)"/></g><path d="M0 0a6.525 6.525 0 0 0-6.53-6.527 6.53 6.53 0 1 0 .008 13.062C-2.916 6.533.002 3.601 0 0" style="fill:#fff;fill-opacity:1;fill-rule:nonzero;stroke:none" transform="translate(231.815 653.855)"/><path d="m0 0-.056-96.233-125.815.074.057 96.233z" style="fill:#fff;fill-opacity:1;fill-rule:nonzero;stroke:none" transform="translate(213.06 701.982)"/><g style="fill:#005a80"><path d="M0 0a2.416 2.416 0 0 0-2.416-2.416h-69.168A2.416 2.416 0 0 0-74 0v93.167a2.417 2.417 0 0 0 2.416 2.417h69.168A2.417 2.417 0 0 0 0 93.167Z" style="fill:#005a80;fill-opacity:1;fill-rule:nonzero;stroke:none" transform="translate(514 611.416)"/></g><path d="M508 614h-62v87h62z" style="fill:#fff;fill-opacity:1;fill-rule:nonzero;stroke:none"/><g style="fill:#c5e6f4"><path d="M0 0c3.297.009 3.177-4.501 3.157-5.1l-6.228.025C-3.247.311 0 0 0 0m5.437-5.1S5.638 2.073 0 2.073-5.235-5.1-5.235-5.1h-9.464v-9.263h29.398V-5.1Z" style="fill:#c5e6f4;fill-opacity:1;fill-rule:nonzero;stroke:none" transform="translate(476.875 709.021)"/></g><path d="M500 681h-34v1h34zm0-15h-34v1h34zm0-14h-34v1h34zm0-15h-34v1h34z" style="fill:#003160;fill-opacity:1;fill-rule:nonzero;stroke:none"/><g style="fill:#bdd251"><path d="m0 0-3.589-3.013-1.206 1.436A.936.936 0 1 1-6.23-2.782l1.809-2.154a.937.937 0 0 1 1.32-.115l4.306 3.616A.936.936 0 1 1 0 0" style="fill:#bdd251;fill-opacity:1;fill-rule:nonzero;stroke:none" transform="translate(460.048 684.882)"/></g><g style="fill:#bdd251"><path d="m0 0-3.589-3.013-1.206 1.436A.936.936 0 1 1-6.23-2.782l1.809-2.153a.936.936 0 0 1 1.32-.116l4.306 3.616A.936.936 0 1 1 0 0" style="fill:#bdd251;fill-opacity:1;fill-rule:nonzero;stroke:none" transform="translate(460.048 669.578)"/></g><g style="fill:#bdd251"><path d="m0 0-3.589-3.013-1.206 1.436A.936.936 0 1 1-6.23-2.782l1.809-2.153a.936.936 0 0 1 1.32-.116l4.306 3.616A.936.936 0 1 1 0 0" style="fill:#bdd251;fill-opacity:1;fill-rule:nonzero;stroke:none" transform="translate(460.048 655.483)"/></g><path d="m0 0-3.589-3.013-1.206 1.436A.936.936 0 1 1-6.23-2.782l1.809-2.153a.936.936 0 0 1 1.32-.116l4.306 3.616A.936.936 0 1 1 0 0" style="fill:#bdd251;fill-opacity:1;fill-rule:nonzero;stroke:none" transform="translate(459.967 641.206)"/><g style="fill:#005a80;stroke:#005a80"><path d="m0 0-96.5.056c-6.083.004-10.982-4.914-10.986-10.992l-.082-139.938c-.003-6.06 4.891-10.998 10.974-11.001l96.499-.057c6.064-.003 10.988 4.924 10.991 10.988l.082 139.939C10.987-4.927 6.064-.004 0 0" style="fill:#005a80;fill-opacity:1;fill-rule:nonzero;stroke:#005a80" transform="translate(210.292 300.856)"/></g><path d="M0 0a6.525 6.525 0 0 0-6.527 6.53 6.53 6.53 0 1 0 13.062-.008C6.533 2.916 3.601-.002 0 0" style="fill:#fff;fill-opacity:1;fill-rule:nonzero;stroke:none" transform="translate(161.955 143.073)"/><path d="m0 0-96.233.056.074 125.815 96.233-.057z" style="fill:#fff;fill-opacity:1;fill-rule:nonzero;stroke:none" transform="translate(210.082 161.827)"/><g style="fill:#bdd251"><path d="M0 0c0-7.687-6.187-13.92-13.816-13.92h-42.747c-7.628 0-13.813 6.233-13.813 13.92 0 6.943 5.044 12.694 11.643 13.747a8.83 8.83 0 0 0-.13 1.504c0 4.871 3.919 8.819 8.755 8.819a8.663 8.663 0 0 0 5.657-2.093c2.718 6.171 6.202 11.803 15.978 11.803 11.855 0 17.474-9.213 17.474-18.934 0-.406-.017-.809-.045-1.208C-4.742 12.345 0 6.73 0 0" style="fill:#bdd251;fill-opacity:1;fill-rule:nonzero;stroke:none" transform="translate(372.423 605.65)"/></g><g style="fill:#bdd251"><path d="M0 0c0-12.697-10.218-22.99-22.818-22.99H-93.42c-12.6 0-22.814 10.293-22.814 22.99 0 11.467 8.33 20.966 19.229 22.704a14.677 14.677 0 0 0-.215 2.485c0 8.045 6.473 14.566 14.46 14.566 3.562 0 6.825-1.298 9.344-3.458 4.489 10.193 10.244 19.494 26.389 19.494 19.58 0 28.861-15.215 28.861-31.271 0-.671-.029-1.336-.074-1.995C-7.832 20.389 0 11.116 0 0" style="fill:#bdd251;fill-opacity:1;fill-rule:nonzero;stroke:none" transform="translate(409.025 179.6)"/></g><g style="fill:#c5e6f4"><path d="M0 0c0-12.506 10.065-22.644 22.475-22.644h69.539c12.41 0 22.471 10.138 22.471 22.644 0 11.295-8.205 20.651-18.94 22.363.137.792.212 1.608.212 2.447 0 7.924-6.376 14.346-14.242 14.346a14.089 14.089 0 0 1-9.204-3.405C67.89 45.79 62.221 54.952 46.319 54.952c-19.285 0-28.426-14.986-28.426-30.801 0-.661.028-1.316.072-1.965C7.714 20.082 0 10.949 0 0" style="fill:#c5e6f4;fill-opacity:1;fill-rule:nonzero;stroke:none" transform="translate(595.731 369.856)"/></g><g style="fill:#005a80"><path d="M0 0a3 3 0 1 1-6 0 3 3 0 0 1 6 0" style="fill:#005a80;fill-opacity:1;fill-rule:nonzero;stroke:none" transform="translate(669.46 576.066)"/></g><g style="fill:#005a80"><path d="M0 0a3 3 0 1 1-6 0 3 3 0 0 1 6 0" style="fill:#005a80;fill-opacity:1;fill-rule:nonzero;stroke:none" transform="translate(669.418 565.266)"/></g><g style="fill:#005a80"><path d="M0 0a3 3 0 1 1-6 0 3 3 0 0 1 6 0" style="fill:#005a80;fill-opacity:1;fill-rule:nonzero;stroke:none" transform="translate(669.376 554.466)"/></g><g style="fill:#005a80"><path d="M0 0a3 3 0 1 1-6 0 3 3 0 0 1 6 0" style="fill:#005a80;fill-opacity:1;fill-rule:nonzero;stroke:none" transform="translate(669.335 543.666)"/></g><g style="fill:#005a80"><path d="M0 0a3 3 0 1 1-6 0 3 3 0 0 1 6 0" style="fill:#005a80;fill-opacity:1;fill-rule:nonzero;stroke:none" transform="translate(669.293 532.866)"/></g><g style="fill:#005a80"><path d="M0 0a3 3 0 1 1-6 0 3 3 0 0 1 6 0" style="fill:#005a80;fill-opacity:1;fill-rule:nonzero;stroke:none" transform="translate(669.251 522.066)"/></g><g style="fill:#005a80"><path d="M0 0a3 3 0 1 1-6 0 3 3 0 0 1 6 0" style="fill:#005a80;fill-opacity:1;fill-rule:nonzero;stroke:none" transform="translate(669.21 511.266)"/></g><g style="fill:#005a80"><path d="M0 0a3 3 0 1 1-6 0 3 3 0 0 1 6 0" style="fill:#005a80;fill-opacity:1;fill-rule:nonzero;stroke:none" transform="translate(669.168 500.466)"/></g><g style="fill:#005a80"><path d="M0 0a3 3 0 1 1-6 0 3 3 0 0 1 6 0" style="fill:#005a80;fill-opacity:1;fill-rule:nonzero;stroke:none" transform="translate(669.126 489.666)"/></g><g style="fill:#005a80"><path d="M0 0a3 3 0 1 1-6 0 3 3 0 0 1 6 0" style="fill:#005a80;fill-opacity:1;fill-rule:nonzero;stroke:none" transform="translate(669.085 478.866)"/></g><g style="fill:#005a80"><path d="M0 0a3 3 0 1 1-6 0 3 3 0 0 1 6 0" style="fill:#005a80;fill-opacity:1;fill-rule:nonzero;stroke:none" transform="translate(669.043 468.067)"/></g><g style="fill:#005a80"><path d="M0 0a3 3 0 1 1-6 0 3 3 0 0 1 6 0" style="fill:#005a80;fill-opacity:1;fill-rule:nonzero;stroke:none" transform="translate(669.001 457.267)"/></g><g style="fill:#005a80"><path d="M0 0a3 3 0 1 1-6 0 3 3 0 0 1 6 0" style="fill:#005a80;fill-opacity:1;fill-rule:nonzero;stroke:none" transform="translate(658.467 457)"/></g><g style="fill:#005a80"><path d="M0 0a3 3 0 1 1-6 0 3 3 0 0 1 6 0" style="fill:#005a80;fill-opacity:1;fill-rule:nonzero;stroke:none" transform="translate(647.667 457)"/></g><g style="fill:#005a80"><path d="M0 0a3 3 0 1 1-6 0 3 3 0 0 1 6 0" style="fill:#005a80;fill-opacity:1;fill-rule:nonzero;stroke:none" transform="translate(636.867 457)"/></g><g style="fill:#005a80"><path d="M0 0a3 3 0 1 1-6 0 3 3 0 0 1 6 0" style="fill:#005a80;fill-opacity:1;fill-rule:nonzero;stroke:none" transform="translate(626.067 457)"/></g><g style="fill:#005a80"><path d="M0 0a3 3 0 1 1-6 0 3 3 0 0 1 6 0" style="fill:#005a80;fill-opacity:1;fill-rule:nonzero;stroke:none" transform="translate(615.267 457)"/></g><g style="fill:#005a80"><path d="M0 0a3 3 0 1 1-6 0 3 3 0 0 1 6 0" style="fill:#005a80;fill-opacity:1;fill-rule:nonzero;stroke:none" transform="translate(604.467 457)"/></g><g style="fill:#005a80"><path d="M0 0a3 3 0 1 1-6 0 3 3 0 0 1 6 0" style="fill:#005a80;fill-opacity:1;fill-rule:nonzero;stroke:none" transform="translate(593.667 457)"/></g><g style="fill:#005a80"><path d="M0 0a3 3 0 1 1-6 0 3 3 0 0 1 6 0" style="fill:#005a80;fill-opacity:1;fill-rule:nonzero;stroke:none" transform="translate(582.867 457)"/></g><g style="fill:#005a80"><path d="M0 0a3 3 0 1 1-6 0 3 3 0 0 1 6 0" style="fill:#005a80;fill-opacity:1;fill-rule:nonzero;stroke:none" transform="translate(572.067 457)"/></g><g style="fill:#005a80"><path d="M0 0a3 3 0 1 1-6 0 3 3 0 0 1 6 0" style="fill:#005a80;fill-opacity:1;fill-rule:nonzero;stroke:none" transform="translate(561.267 457)"/></g><g style="fill:#005a80"><path d="M0 0a3 3 0 1 1-6 0 3 3 0 0 1 6 0" style="fill:#005a80;fill-opacity:1;fill-rule:nonzero;stroke:none" transform="translate(550.467 457)"/></g><g style="fill:#005a80"><path d="M0 0a3 3 0 1 1-6 0 3 3 0 0 1 6 0" style="fill:#005a80;fill-opacity:1;fill-rule:nonzero;stroke:none" transform="translate(539.667 457)"/></g><g style="fill:#005a80"><path d="M0 0h-236.056c-3.232 0-6.509-2.297-6.509-5.528V-168.43c0-3.231 3.277-5.57 6.509-5.57h88.166s.059-15 .08-15h-12.157c-2.962 0-5.365-2.537-5.365-5.498 0-2.962 2.403-5.502 5.365-5.502h86.815c2.962 0 5.365 2.537 5.365 5.502 0 2.961-2.403 5.498-5.365 5.498h-12.555c.019 0-.121 15-.121 15H.012c3.232 0 6.423 2.342 6.423 5.57V-5.528C6.435-2.297 3.235 0 0 0" style="fill:#005a80;fill-opacity:1;fill-rule:nonzero;stroke:none" transform="translate(520.565 539)"/></g><path d="M0 0a6.142 6.142 0 0 0-6.142-6.142h-214.716A6.142 6.142 0 0 0-227 0v128.715a6.142 6.142 0 0 0 6.142 6.143H-6.142A6.142 6.142 0 0 0 0 128.715z" style="fill:#fff;fill-opacity:1;fill-rule:nonzero;stroke:none" transform="translate(517 393.142)"/><g style="fill:#005a80"><path d="M0 0h-50.797c-4.858 0-8.782-3.94-8.782-8.798v-103.141c0-4.842 3.924-8.786 8.782-8.786H0c4.85 0 8.79 3.94 8.79 8.786V-8.798C8.786-3.94 4.85 0 0 0" style="fill:#005a80;fill-opacity:1;fill-rule:nonzero;stroke:none" transform="translate(691.865 707.634)"/></g><path d="M694.067 609.82h-55.194v82.974h55.194z" style="fill:#fff;fill-opacity:1;fill-rule:nonzero;stroke:none"/><path d="M0 0h-23.551v2.568H.004V0Z" style="fill:#fff;fill-opacity:1;fill-rule:nonzero;stroke:none" transform="translate(678.244 698.707)"/><path d="M0 0a2.253 2.253 0 0 0-4.504 0 2.253 2.253 0 0 0 2.252 2.248A2.25 2.25 0 0 0 0 0" style="fill:#fff;fill-opacity:1;fill-rule:nonzero;stroke:none" transform="translate(688.321 699.88)"/><path d="M677.188 596.282h-21.447v6.599h21.447z" style="fill:#fff;fill-opacity:1;fill-rule:nonzero;stroke:none"/><g style="stroke:#005a80;stroke-opacity:1"><path d="M0 0h128s25.5 1 25.5-25v-88.5" style="fill:none;stroke:#005a80;stroke-width:3;stroke-linecap:butt;stroke-linejoin:miter;stroke-miterlimit:10;stroke-dasharray:none;stroke-opacity:1" transform="translate(236 652.5)"/></g><path d="M239 645h-6v16h6zm42-147h-6v16h6z" style="fill:#005a80;fill-opacity:1;fill-rule:nonzero;stroke:none"/><g style="fill:#005a80"><path d="M0 0v18.646h-.004c-10.297 0-18.639-8.345-18.639-18.64 0-5.158 2.093-9.826 5.479-13.201L.029 0Z" style="fill:#005a80;fill-opacity:1;fill-rule:nonzero;stroke:none" transform="translate(571.088 642.533)"/></g><g style="fill:#005a80"><path d="M0 0a18.588 18.588 0 0 1 13.161-5.441c10.293 0 18.638 8.342 18.641 18.635H13.195Z" style="fill:#005a80;fill-opacity:1;fill-rule:nonzero;stroke:none" transform="translate(559.495 627.113)"/></g><g style="fill:#c5e6f4"><path d="M0 0v-18.646h18.638v.005C18.638-8.348 10.292-.004 0 0" style="fill:#c5e6f4;fill-opacity:1;fill-rule:nonzero;stroke:none" transform="translate(573.577 661.179)"/></g><g style="fill:#bdd251"><path d="m0 0 10.473-18.141a20.86 20.86 0 0 0-9.337-2.211c-11.602 0-21.008 9.407-21.008 21.008 0 11.159 8.706 20.26 19.695 20.942V.656C-.177.431-.118.205 0 0" style="fill:#bdd251;fill-opacity:1;fill-rule:nonzero;stroke:none" transform="translate(112.747 347.243)"/></g><path d="M0 0c7-1.526 12.288-6.831 13.814-13.831H0Zm-3 3.011v-19.842h19.824C16.17-5.831 8 2.357-3 3.011" style="fill:#002b59;fill-opacity:1;fill-rule:nonzero;stroke:none" transform="translate(118 365.83)"/><g style="fill:#005a80"><path d="M0 0a20.974 20.974 0 0 1 9.325 16.185H-9.343Z" style="fill:#005a80;fill-opacity:1;fill-rule:nonzero;stroke:none" transform="translate(125.5 330.402)"/></g><g style="fill:#005a80"><path d="M0 0a16.03 16.03 0 0 0 8.323 9.072l6.788-14.581Z" style="fill:#005a80;fill-opacity:1;fill-rule:nonzero;stroke:none" transform="translate(187.363 472.876)"/></g><g style="fill:#005a80"><path d="m0 0 6.788-14.581-15.109 5.51a16.021 16.021 0 0 1 .528-12.298c3.748-8.052 13.317-11.542 21.369-7.794 8.051 3.748 11.541 13.318 7.793 21.37C17.621.258 8.052 3.748 0 0" style="fill:#005a80;fill-opacity:1;fill-rule:nonzero;stroke:none" transform="translate(199.292 478.557)"/></g><g style="fill:#c5e6f4"><path d="M0 0v-2.36h-37.757v37.757h2.36V0Z" style="fill:#c5e6f4;fill-opacity:1;fill-rule:nonzero;stroke:none" transform="translate(471.367 276.234)"/></g><g style="fill:#bdd251"><path d="m0 0 9.64-2.408 3.337 5.558L16 1.334l.157 9.412-8.23-4.568 3.024-1.816L8.515.302-.724 2.613l-9.911-9.911 1.668-1.669z" style="fill:#bdd251;fill-opacity:1;fill-rule:nonzero;stroke:none" transform="translate(450.49 298.525)"/></g><g style="fill:#c5e6f4"><path d="M0 0h4.72v17l-1.275.318L0 13.873Z" style="fill:#c5e6f4;fill-opacity:1;fill-rule:nonzero;stroke:none" transform="translate(447.77 278.594)"/></g><g style="fill:#c5e6f4"><path d="M0 0v-8.462h4.72V3.051L.834-.834Z" style="fill:#c5e6f4;fill-opacity:1;fill-rule:nonzero;stroke:none" transform="translate(440.69 287.056)"/></g><g style="fill:#c5e6f4"><path d="M0 0v-15.929h4.72v18.42L2.348 3.913Z" style="fill:#c5e6f4;fill-opacity:1;fill-rule:nonzero;stroke:none" transform="translate(461.928 294.522)"/></g><g style="fill:#c5e6f4"><path d="M0 0v15.23l-4.72 1.18V0Z" style="fill:#c5e6f4;fill-opacity:1;fill-rule:nonzero;stroke:none" transform="translate(459.568 278.594)"/></g><g style="stroke:#005a80;stroke-opacity:1"><path d="M0 0h-88.997c-26 0-24.503-25.497-24.503-25.497v-128l-.005-56.703" style="fill:none;stroke:#005a80;stroke-width:3;stroke-linecap:butt;stroke-linejoin:miter;stroke-miterlimit:10;stroke-dasharray:none;stroke-opacity:1" transform="translate(276 506.5)"/></g><path d="M174 296h-24v9h24z" style="fill:#005a80;fill-opacity:1;fill-rule:nonzero;stroke:none"/><g style="stroke:#005a80;stroke-opacity:1"><path d="m0 0-71.625-.119S-97.25-1.242-97.25 24.758v88.995" style="fill:none;stroke:#005a80;stroke-width:3;stroke-linecap:butt;stroke-linejoin:miter;stroke-miterlimit:10;stroke-dasharray:none;stroke-opacity:1" transform="translate(501.75 236.248)"/></g><path d="M499 226h-8v18h8z" style="fill:#005a80;fill-opacity:1;fill-rule:nonzero;stroke:none"/><path d="M500 478H306v29h194z" style="fill:#c5e6f4;fill-opacity:1;fill-rule:nonzero;stroke:none"/><path d="M679 252H517v19h162z" style="fill:#005a80;fill-opacity:1;fill-rule:nonzero;stroke:none"/><path d="M679 237H517v9h162z" style="fill:#a1a1a1;fill-opacity:1;fill-rule:nonzero;stroke:none"/><path d="M690 636h-48v52h48z" style="fill:#c5e6f4;fill-opacity:1;fill-rule:nonzero;stroke:none"/><path d="M690 613h-48v19h48z" style="fill:#bdd251;fill-opacity:1;fill-rule:nonzero;stroke:none"/><path d="M450 401H305v10h145zM205 619H94v10h111zm294-218h-42v10h42z" style="fill:#a1a1a1;fill-opacity:1;fill-rule:nonzero;stroke:none"/><path d="M349 443h-43v30h43zM204 190h-41v33h41zm195 253h-43v30h43zm51 0h-43v30h43zm50 0h-43v30h43z" style="fill:#bdd251;fill-opacity:1;fill-rule:nonzero;stroke:none"/><path d="M204 266h-84v11h84z" style="fill:#005a80;fill-opacity:1;fill-rule:nonzero;stroke:none"/><path d="M205 181h-84v4h84zm0-8h-84v4h84z" style="fill:#a1a1a1;fill-opacity:1;fill-rule:nonzero;stroke:none"/><path d="M206 676H94v16h112z" style="fill:#005a80;fill-opacity:1;fill-rule:nonzero;stroke:none"/><path d="M160 228h-40v33h40z" style="fill:#c5e6f4;fill-opacity:1;fill-rule:nonzero;stroke:none"/><g style="fill:#c5e6f4"><path d="M0 0v17.492l9.75-8.746Z" style="fill:#c5e6f4;fill-opacity:1;fill-rule:nonzero;stroke:none" transform="translate(534 379.254)"/></g><g style="fill:#c5e6f4"><path d="M0 0v17.492l9.75-8.746Z" style="fill:#c5e6f4;fill-opacity:1;fill-rule:nonzero;stroke:none" transform="translate(552 379.254)"/></g><g style="fill:#c5e6f4"><path d="M0 0v17.492l9.75-8.746Z" style="fill:#c5e6f4;fill-opacity:1;fill-rule:nonzero;stroke:none" transform="translate(570 379.254)"/></g><g style="fill:#bdd251"><path d="M0 0h17.492L8.746-9.75Z" style="fill:#bdd251;fill-opacity:1;fill-rule:nonzero;stroke:none" transform="translate(328.13 593)"/></g><g style="fill:#bdd251"><path d="M0 0h17.492L8.746-9.75Z" style="fill:#bdd251;fill-opacity:1;fill-rule:nonzero;stroke:none" transform="translate(328.13 575)"/></g><g style="fill:#bdd251"><path d="M0 0h17.492L8.746-9.75Z" style="fill:#bdd251;fill-opacity:1;fill-rule:nonzero;stroke:none" transform="translate(328.13 557)"/></g><g style="fill:#bdd251"><path d="M0 0v17.492l9.75-8.746Z" style="fill:#bdd251;fill-opacity:1;fill-rule:nonzero;stroke:none" transform="translate(228 187.254)"/></g><g style="fill:#bdd251"><path d="M0 0v17.492l9.75-8.746Z" style="fill:#bdd251;fill-opacity:1;fill-rule:nonzero;stroke:none" transform="translate(246 187.254)"/></g><g style="fill:#bdd251"><path d="M0 0v17.492l9.75-8.746Z" style="fill:#bdd251;fill-opacity:1;fill-rule:nonzero;stroke:none" transform="translate(264 187.254)"/></g><g style="fill:#c5e6f4"><path d="M0 0h-9.837v-12.692a3.356 3.356 0 0 0-3.352-3.352h-15.147v-4.25c0-1.057.857-1.915 1.915-1.915h14.881l6.218-5.193c.812-.678 1.248-.399.975.622l-1.215 4.541c-.002.01-.008.02-.011.03H0c1.057 0 1.915.857 1.915 1.915v18.38A1.916 1.916 0 0 1 0 0" style="fill:#c5e6f4;fill-opacity:1;fill-rule:nonzero;stroke:none" transform="translate(307.179 699.313)"/></g><g style="fill:#c5e6f4"><path d="M0 0h2.927c-.003-.011-.009-.02-.012-.031l-1.214-4.54c-.173-.644-.063-.993.245-.993.18 0 .429.12.729.37L8.893 0h17.528c1.057 0 1.915.857 1.915 1.915v18.379a1.915 1.915 0 0 1-1.915 1.915H0a1.915 1.915 0 0 1-1.915-1.915V1.915C-1.915.857-1.058 0 0 0" style="fill:#c5e6f4;fill-opacity:1;fill-rule:nonzero;stroke:none" transform="translate(267.57 684.706)"/></g><path d="m0 0 16.514-6.098-4.699-12.727L-4.7-12.727Zm7.498 1.628L11.874.012a.318.318 0 1 0-.22-.598L7.277 1.03a.318.318 0 0 0 .221.598m2.023-25.694a.517.517 0 0 0-.53-.318l-.589.081c-.217.03-.332.222-.256.428l.247.668c.136.368.494.691.799.723l.555.055c.218.022.333-.127.257-.333l-.482-1.304zm-.928-2.515a.516.516 0 0 0-.53-.318l-.59.081c-.217.031-.332.222-.256.428l.247.667c.136.369.495.693.799.724l.555.055c.218.021.333-.127.257-.333zM7.6-29.099a.516.516 0 0 0-.531-.318l-.589.082c-.218.03-.331.221-.255.426l.246.667c.136.369.494.693.799.724l.554.055c.218.022.334-.128.258-.333L7.601-29.1Zm-.237 5.495a.513.513 0 0 0-.53-.318l-.59.081c-.217.03-.33.221-.254.427l.246.668c.136.368.494.693.799.723l.554.056c.217.022.333-.127.257-.333zm-.929-2.516a.516.516 0 0 0-.53-.318l-.589.082c-.218.03-.331.22-.255.426l.246.667c.136.369.494.693.799.724l.554.055c.217.022.332-.127.256-.333zm-.992-2.518a.515.515 0 0 0-.531-.318l-.589.081c-.217.03-.332.222-.256.428l.246.667c.136.368.495.692.801.722l.554.056c.217.022.332-.127.256-.332zm-.224 5.566a.516.516 0 0 0-.53-.318l-.59.082c-.217.03-.331.221-.255.427l.247.667c.136.369.494.693.799.724l.554.055c.218.022.333-.127.257-.332zm-.929-2.515a.517.517 0 0 0-.53-.319l-.59.082c-.217.03-.33.222-.255.427l.247.667c.136.369.493.693.799.724l.554.056c.218.022.333-.127.257-.333zm-.993-2.518a.516.516 0 0 0-.53-.318l-.59.082c-.217.031-.331.221-.255.427l.247.668c.136.368.494.692.799.723l.553.055c.22.022.335-.127.259-.333l-.482-1.304zm-.215 5.631a.515.515 0 0 0-.529-.318l-.59.082c-.217.03-.332.222-.256.427l.247.668c.136.368.494.692.8.723l.554.055c.218.022.333-.127.257-.332l-.482-1.305Zm-.929-2.516a.515.515 0 0 0-.53-.318l-.589.082c-.217.03-.332.221-.256.427l.247.668c.136.369.494.692.8.723l.554.055c.218.022.333-.127.257-.332l-.482-1.305Zm-.992-2.517a.516.516 0 0 0-.531-.319l-.588.082c-.218.03-.332.222-.256.427l.246.668c.136.368.495.692.8.722l.553.057c.218.022.334-.128.258-.333zm.336 9.264a1.079 1.079 0 1 0 2.025-.746 1.079 1.079 0 0 0-2.025.746M-1.074-27c-.076-.205-.287-.276-.472-.158l-.501.321a.514.514 0 0 0-.196.586l.481 1.304c.076.205.26.244.412.086l.384-.403c.213-.222.275-.7.139-1.069L-1.074-27m.64 5.824.482 1.304c.076.206.261.244.413.086l.383-.402c.213-.222.275-.701.139-1.07l-.247-.668c-.076-.205-.288-.276-.472-.157l-.5.32a.515.515 0 0 0-.198.587m-.034-1.126.383-.402c.213-.222.275-.701.139-1.07l-.247-.667c-.076-.206-.288-.277-.472-.158l-.5.32a.514.514 0 0 0-.197.587l.481 1.304c.076.206.261.244.413.086m-2.619-3.763c-.076-.206-.286-.277-.471-.159l-.501.321a.514.514 0 0 0-.196.586l.481 1.304c.076.206.26.244.412.086l.385-.402c.213-.222.273-.7.137-1.069l-.247-.667m.642 5.823.481 1.304c.076.206.26.244.413.086l.384-.403c.212-.221.274-.7.138-1.069l-.247-.668c-.076-.205-.286-.276-.471-.158l-.502.321a.517.517 0 0 0-.196.587m-.035-1.126.385-.402c.211-.222.273-.7.137-1.069l-.247-.668c-.076-.206-.286-.277-.471-.158l-.502.321a.518.518 0 0 0-.196.587l.481 1.303c.077.206.261.245.413.086m-2.584-3.708c-.076-.206-.286-.277-.471-.159l-.501.321a.517.517 0 0 0-.196.587l.482 1.304c.076.205.26.243.411.085l.385-.402c.213-.222.273-.701.137-1.069l-.247-.667m.642 5.824.481 1.304c.076.205.26.243.412.085l.385-.402c.212-.222.274-.701.138-1.069l-.247-.668c-.076-.206-.287-.277-.472-.159l-.501.322a.517.517 0 0 0-.196.587m-.036-1.126.385-.402c.213-.222.274-.701.138-1.07l-.246-.667c-.076-.206-.288-.276-.472-.158l-.501.321a.515.515 0 0 0-.196.587l.481 1.303c.075.206.259.244.411.086m-2.545-3.646c-.076-.206-.288-.277-.472-.158l-.501.321a.515.515 0 0 0-.196.586l.481 1.304c.076.206.26.244.412.086l.386-.402c.212-.222.273-.701.137-1.07l-.247-.667m.641 5.824.481 1.303c.076.206.261.244.413.085l.385-.402c.213-.222.273-.7.137-1.068l-.247-.668c-.075-.206-.286-.277-.471-.159l-.501.321a.518.518 0 0 0-.197.588m-.035-1.126.384-.402c.213-.222.274-.701.138-1.07l-.247-.667c-.076-.206-.286-.277-.471-.159l-.501.321a.516.516 0 0 0-.197.587l.481 1.304c.076.206.261.244.413.086m-3.451-9.446c.092-.068 2.297-1.671 6.175-3.104.37-.136.755-.271 1.118-.389.382-.163.78-.319 1.18-.467 3.638-1.344 6.677-1.632 6.725-1.635 1.866.061 3.155.805 3.631 2.094L19.777-3.035c.546 1.478-.192 3.117-1.634 3.649l-.002.001c-.28.147-2.86 1.485-7.181 3.081l-.531.194C5.505 5.672 3.17 6.148 3.186 6.141A2.863 2.863 0 0 1-.488 4.448L-11.285-24.79c-.573-1.55-.018-3.079 1.437-3.982" style="fill:#fff;fill-opacity:1;fill-rule:nonzero;stroke:none" transform="translate(649.043 393.522)"/><path d="M0 0a3.768 3.768 0 0 0-3.764-3.764A3.768 3.768 0 0 0-7.527 0a3.768 3.768 0 0 0 3.763 3.764A3.768 3.768 0 0 0 0 0m5.44 2.105H4.436c-.271 0-.588.246-.691.537-.096.27-.209.538-.334.798-.134.277-.085.673.107.865l.715.714a1.286 1.286 0 0 1 0 1.817l-1.16 1.16a1.279 1.279 0 0 1-.908.376 1.28 1.28 0 0 1-.909-.376l-.714-.715c-.115-.115-.306-.183-.511-.183a.806.806 0 0 0-.353.076c-.261.126-.53.238-.8.334-.291.104-.537.42-.537.692v1.004c0 .708-.576 1.284-1.284 1.284h-1.641a1.285 1.285 0 0 1-1.284-1.284V8.2c0-.272-.246-.588-.537-.692a8.164 8.164 0 0 1-.799-.333.824.824 0 0 0-.353-.076c-.205 0-.397.069-.512.184l-.714.713a1.273 1.273 0 0 1-.908.376c-.343 0-.666-.133-.908-.376l-1.161-1.16a1.276 1.276 0 0 1-.377-.909c0-.343.134-.665.376-.908l.715-.714c.192-.193.242-.589.108-.865a7.916 7.916 0 0 1-.334-.798c-.103-.291-.42-.537-.691-.537h-1.004A1.286 1.286 0 0 1-14.252.82V-.82c0-.709.576-1.285 1.285-1.285h1.004c.271 0 .588-.246.691-.536.096-.27.208-.538.334-.798.134-.277.084-.673-.108-.865l-.715-.715c-.5-.501-.5-1.316 0-1.817l1.162-1.161c.243-.243.565-.376.908-.376.343 0 .666.133.908.376l.715.714c.115.115.307.184.512.184a.81.81 0 0 0 .353-.076c.26-.125.528-.238.798-.333.291-.104.537-.42.537-.692v-1.004c0-.708.576-1.285 1.284-1.285h1.641c.708 0 1.284.577 1.284 1.285V-8.2c0 .272.246.588.537.692.27.095.539.208.799.333a.822.822 0 0 0 .352.076c.206 0 .398-.069.513-.184l.715-.714c.242-.243.565-.377.908-.377.343 0 .665.134.908.377l1.16 1.161a1.285 1.285 0 0 1 0 1.816l-.714.715c-.192.192-.241.588-.108.865.126.26.238.528.334.798.103.291.42.537.692.537h1.004c.708 0 1.284.576 1.284 1.284V.82c0 .709-.577 1.285-1.285 1.285" style="fill:#fff;fill-opacity:1;fill-rule:nonzero;stroke:none" transform="translate(346.487 606.822)"/><path d="M0 0a1.67 1.67 0 0 0-1.668-1.668A1.67 1.67 0 0 0-3.336 0c0 .92.749 1.668 1.668 1.668A1.67 1.67 0 0 0 0 0m2.288-1.392c.024.068.105.126.143.126h.503c.472 0 .856.384.856.856v.82a.857.857 0 0 1-.856.856h-.502c-.039 0-.12.058-.144.126a4.3 4.3 0 0 1-.176.421c-.031.064-.015.161.012.188l.358.357a.859.859 0 0 1 0 1.211l-.581.58a.847.847 0 0 1-.605.251.847.847 0 0 1-.605-.251l-.358-.357C.322 3.78.284 3.763.229 3.763a.205.205 0 0 0-.083.016 3.944 3.944 0 0 1-.421.176c-.069.024-.126.106-.126.144v.503a.857.857 0 0 1-.856.856h-.821a.857.857 0 0 1-.856-.856v-.503c0-.038-.058-.119-.126-.144a3.978 3.978 0 0 1-.421-.176.208.208 0 0 0-.083-.016c-.055 0-.093.017-.105.029l-.357.357a.85.85 0 0 1-.606.251.85.85 0 0 1-.605-.251l-.58-.58a.857.857 0 0 1 0-1.211l.357-.357c.027-.027.044-.124.013-.188a3.86 3.86 0 0 1-.176-.421c-.025-.068-.106-.126-.144-.126h-.503A.857.857 0 0 1-7.126.41v-.821c0-.472.384-.856.856-.856h.503c.038 0 .119-.057.144-.126.05-.142.109-.284.176-.421.031-.064.014-.16-.013-.187l-.357-.358a.847.847 0 0 1-.251-.605c0-.229.089-.444.251-.605l.58-.58a.85.85 0 0 1 .606-.251.85.85 0 0 1 .605.251l.357.357c.012.011.05.029.105.029a.208.208 0 0 0 .083-.016c.137-.067.279-.126.421-.176.068-.025.126-.106.126-.144v-.503c0-.472.384-.856.856-.856h.821c.472 0 .856.384.856.856v.503c0 .038.057.119.126.143.142.051.284.11.421.176a.189.189 0 0 0 .083.017c.055 0 .093-.018.104-.029l.358-.357a.847.847 0 0 1 .605-.251c.229 0 .444.089.605.251l.581.58a.858.858 0 0 1 0 1.21l-.358.358c-.027.027-.043.123-.012.187.066.138.125.279.176.422" style="fill:#fff;fill-opacity:1;fill-rule:nonzero;stroke:none" transform="translate(332.654 618.559)"/><path d="M0 0h33" style="fill:none;stroke:#a1a1a1;stroke-width:1;stroke-linecap:butt;stroke-linejoin:miter;stroke-miterlimit:10;stroke-dasharray:none;stroke-opacity:1" transform="translate(306 437.5)"/><path d="M0 0h33" style="fill:none;stroke:#a1a1a1;stroke-width:1;stroke-linecap:butt;stroke-linejoin:miter;stroke-miterlimit:10;stroke-dasharray:none;stroke-opacity:1" transform="translate(306 433.5)"/><path d="M0 0h29" style="fill:none;stroke:#a1a1a1;stroke-width:1;stroke-linecap:butt;stroke-linejoin:miter;stroke-miterlimit:10;stroke-dasharray:none;stroke-opacity:1" transform="translate(306 429.5)"/><path d="M0 0h39" style="fill:none;stroke:#a1a1a1;stroke-width:1;stroke-linecap:butt;stroke-linejoin:miter;stroke-miterlimit:10;stroke-dasharray:none;stroke-opacity:1" transform="translate(306 425.5)"/><path d="M0 0h37" style="fill:none;stroke:#a1a1a1;stroke-width:1;stroke-linecap:butt;stroke-linejoin:miter;stroke-miterlimit:10;stroke-dasharray:none;stroke-opacity:1" transform="translate(306 421.5)"/><path d="M0 0h43" style="fill:none;stroke:#a1a1a1;stroke-width:1;stroke-linecap:butt;stroke-linejoin:miter;stroke-miterlimit:10;stroke-dasharray:none;stroke-opacity:1" transform="translate(306 417.5)"/><path d="M0 0h33" style="fill:none;stroke:#a1a1a1;stroke-width:1;stroke-linecap:butt;stroke-linejoin:miter;stroke-miterlimit:10;stroke-dasharray:none;stroke-opacity:1" transform="translate(407 437.5)"/><path d="M0 0h33" style="fill:none;stroke:#a1a1a1;stroke-width:1;stroke-linecap:butt;stroke-linejoin:miter;stroke-miterlimit:10;stroke-dasharray:none;stroke-opacity:1" transform="translate(407 433.5)"/><path d="M0 0h39" style="fill:none;stroke:#a1a1a1;stroke-width:1;stroke-linecap:butt;stroke-linejoin:miter;stroke-miterlimit:10;stroke-dasharray:none;stroke-opacity:1" transform="translate(407 429.5)"/><path d="M0 0h43" style="fill:none;stroke:#a1a1a1;stroke-width:1;stroke-linecap:butt;stroke-linejoin:miter;stroke-miterlimit:10;stroke-dasharray:none;stroke-opacity:1" transform="translate(407 425.5)"/><path d="M0 0h37" style="fill:none;stroke:#a1a1a1;stroke-width:1;stroke-linecap:butt;stroke-linejoin:miter;stroke-miterlimit:10;stroke-dasharray:none;stroke-opacity:1" transform="translate(407 421.5)"/><path d="M0 0h43" style="fill:none;stroke:#a1a1a1;stroke-width:1;stroke-linecap:butt;stroke-linejoin:miter;stroke-miterlimit:10;stroke-dasharray:none;stroke-opacity:1" transform="translate(407 417.5)"/><path d="M0 0h43" style="fill:none;stroke:#a1a1a1;stroke-width:1;stroke-linecap:butt;stroke-linejoin:miter;stroke-miterlimit:10;stroke-dasharray:none;stroke-opacity:1" transform="translate(356 437.5)"/><path d="M0 0h38" style="fill:none;stroke:#a1a1a1;stroke-width:1;stroke-linecap:butt;stroke-linejoin:miter;stroke-miterlimit:10;stroke-dasharray:none;stroke-opacity:1" transform="translate(356 433.5)"/><path d="M0 0h29" style="fill:none;stroke:#a1a1a1;stroke-width:1;stroke-linecap:butt;stroke-linejoin:miter;stroke-miterlimit:10;stroke-dasharray:none;stroke-opacity:1" transform="translate(356 429.5)"/><path d="M0 0h43" style="fill:none;stroke:#a1a1a1;stroke-width:1;stroke-linecap:butt;stroke-linejoin:miter;stroke-miterlimit:10;stroke-dasharray:none;stroke-opacity:1" transform="translate(356 425.5)"/><path d="M0 0h43" style="fill:none;stroke:#a1a1a1;stroke-width:1;stroke-linecap:butt;stroke-linejoin:miter;stroke-miterlimit:10;stroke-dasharray:none;stroke-opacity:1" transform="translate(356 421.5)"/><path d="M0 0h43" style="fill:none;stroke:#a1a1a1;stroke-width:1;stroke-linecap:butt;stroke-linejoin:miter;stroke-miterlimit:10;stroke-dasharray:none;stroke-opacity:1" transform="translate(356 417.5)"/><path d="M0 0h41" style="fill:none;stroke:#a1a1a1;stroke-width:1;stroke-linecap:butt;stroke-linejoin:miter;stroke-miterlimit:10;stroke-dasharray:none;stroke-opacity:1" transform="translate(163 260.5)"/><path d="M0 0h41" style="fill:none;stroke:#a1a1a1;stroke-width:1;stroke-linecap:butt;stroke-linejoin:miter;stroke-miterlimit:10;stroke-dasharray:none;stroke-opacity:1" transform="translate(163 256.5)"/><path d="M0 0h41" style="fill:none;stroke:#a1a1a1;stroke-width:1;stroke-linecap:butt;stroke-linejoin:miter;stroke-miterlimit:10;stroke-dasharray:none;stroke-opacity:1" transform="translate(163 252.5)"/><path d="M0 0h41" style="fill:none;stroke:#a1a1a1;stroke-width:1;stroke-linecap:butt;stroke-linejoin:miter;stroke-miterlimit:10;stroke-dasharray:none;stroke-opacity:1" transform="translate(163 248.5)"/><path d="M0 0h41" style="fill:none;stroke:#a1a1a1;stroke-width:1;stroke-linecap:butt;stroke-linejoin:miter;stroke-miterlimit:10;stroke-dasharray:none;stroke-opacity:1" transform="translate(163 244.5)"/><path d="M0 0h41" style="fill:none;stroke:#a1a1a1;stroke-width:1;stroke-linecap:butt;stroke-linejoin:miter;stroke-miterlimit:10;stroke-dasharray:none;stroke-opacity:1" transform="translate(163 240.5)"/><path d="M0 0h41" style="fill:none;stroke:#a1a1a1;stroke-width:1;stroke-linecap:butt;stroke-linejoin:miter;stroke-miterlimit:10;stroke-dasharray:none;stroke-opacity:1" transform="translate(163 236.5)"/><path d="M0 0h41" style="fill:none;stroke:#a1a1a1;stroke-width:1;stroke-linecap:butt;stroke-linejoin:miter;stroke-miterlimit:10;stroke-dasharray:none;stroke-opacity:1" transform="translate(163 232.5)"/><path d="M0 0h41" style="fill:none;stroke:#a1a1a1;stroke-width:1;stroke-linecap:butt;stroke-linejoin:miter;stroke-miterlimit:10;stroke-dasharray:none;stroke-opacity:1" transform="translate(163 228.5)"/><path d="M0 0h35" style="fill:none;stroke:#a1a1a1;stroke-width:1;stroke-linecap:butt;stroke-linejoin:miter;stroke-miterlimit:10;stroke-dasharray:none;stroke-opacity:1" transform="translate(94 668.5)"/><path d="M0 0h35" style="fill:none;stroke:#a1a1a1;stroke-width:1;stroke-linecap:butt;stroke-linejoin:miter;stroke-miterlimit:10;stroke-dasharray:none;stroke-opacity:1" transform="translate(94 664.5)"/><path d="M0 0h35" style="fill:none;stroke:#a1a1a1;stroke-width:1;stroke-linecap:butt;stroke-linejoin:miter;stroke-miterlimit:10;stroke-dasharray:none;stroke-opacity:1" transform="translate(94 660.5)"/><path d="M0 0h35" style="fill:none;stroke:#a1a1a1;stroke-width:1;stroke-linecap:butt;stroke-linejoin:miter;stroke-miterlimit:10;stroke-dasharray:none;stroke-opacity:1" transform="translate(94 656.5)"/><path d="M0 0h35" style="fill:none;stroke:#a1a1a1;stroke-width:1;stroke-linecap:butt;stroke-linejoin:miter;stroke-miterlimit:10;stroke-dasharray:none;stroke-opacity:1" transform="translate(94 652.5)"/><path d="M0 0h35" style="fill:none;stroke:#a1a1a1;stroke-width:1;stroke-linecap:butt;stroke-linejoin:miter;stroke-miterlimit:10;stroke-dasharray:none;stroke-opacity:1" transform="translate(94 648.5)"/><path d="M0 0h35" style="fill:none;stroke:#a1a1a1;stroke-width:1;stroke-linecap:butt;stroke-linejoin:miter;stroke-miterlimit:10;stroke-dasharray:none;stroke-opacity:1" transform="translate(94 644.5)"/><path d="M0 0h35" style="fill:none;stroke:#a1a1a1;stroke-width:1;stroke-linecap:butt;stroke-linejoin:miter;stroke-miterlimit:10;stroke-dasharray:none;stroke-opacity:1" transform="translate(94 640.5)"/><path d="M0 0h35" style="fill:none;stroke:#a1a1a1;stroke-width:1;stroke-linecap:butt;stroke-linejoin:miter;stroke-miterlimit:10;stroke-dasharray:none;stroke-opacity:1" transform="translate(94 636.5)"/><path d="M0 0h32" style="fill:none;stroke:#a1a1a1;stroke-width:1;stroke-linecap:butt;stroke-linejoin:miter;stroke-miterlimit:10;stroke-dasharray:none;stroke-opacity:1" transform="translate(134 668.5)"/><path d="M0 0h32" style="fill:none;stroke:#a1a1a1;stroke-width:1;stroke-linecap:butt;stroke-linejoin:miter;stroke-miterlimit:10;stroke-dasharray:none;stroke-opacity:1" transform="translate(134 664.5)"/><path d="M0 0h32" style="fill:none;stroke:#a1a1a1;stroke-width:1;stroke-linecap:butt;stroke-linejoin:miter;stroke-miterlimit:10;stroke-dasharray:none;stroke-opacity:1" transform="translate(134 660.5)"/><path d="M0 0h32" style="fill:none;stroke:#a1a1a1;stroke-width:1;stroke-linecap:butt;stroke-linejoin:miter;stroke-miterlimit:10;stroke-dasharray:none;stroke-opacity:1" transform="translate(134 656.5)"/><path d="M0 0h32" style="fill:none;stroke:#a1a1a1;stroke-width:1;stroke-linecap:butt;stroke-linejoin:miter;stroke-miterlimit:10;stroke-dasharray:none;stroke-opacity:1" transform="translate(134 652.5)"/><path d="M0 0h32" style="fill:none;stroke:#a1a1a1;stroke-width:1;stroke-linecap:butt;stroke-linejoin:miter;stroke-miterlimit:10;stroke-dasharray:none;stroke-opacity:1" transform="translate(134 648.5)"/><path d="M0 0h32" style="fill:none;stroke:#a1a1a1;stroke-width:1;stroke-linecap:butt;stroke-linejoin:miter;stroke-miterlimit:10;stroke-dasharray:none;stroke-opacity:1" transform="translate(134 644.5)"/><path d="M0 0h32" style="fill:none;stroke:#a1a1a1;stroke-width:1;stroke-linecap:butt;stroke-linejoin:miter;stroke-miterlimit:10;stroke-dasharray:none;stroke-opacity:1" transform="translate(134 640.5)"/><path d="M0 0h32" style="fill:none;stroke:#a1a1a1;stroke-width:1;stroke-linecap:butt;stroke-linejoin:miter;stroke-miterlimit:10;stroke-dasharray:none;stroke-opacity:1" transform="translate(134 636.5)"/><path d="M0 0h50" style="fill:none;stroke:#a1a1a1;stroke-width:1;stroke-linecap:butt;stroke-linejoin:miter;stroke-miterlimit:10;stroke-dasharray:none;stroke-opacity:1" transform="translate(517 230.5)"/><path d="M0 0h50" style="fill:none;stroke:#a1a1a1;stroke-width:1;stroke-linecap:butt;stroke-linejoin:miter;stroke-miterlimit:10;stroke-dasharray:none;stroke-opacity:1" transform="translate(517 226.5)"/><path d="M0 0h50" style="fill:none;stroke:#a1a1a1;stroke-width:1;stroke-linecap:butt;stroke-linejoin:miter;stroke-miterlimit:10;stroke-dasharray:none;stroke-opacity:1" transform="translate(517 222.5)"/><path d="M0 0h50" style="fill:none;stroke:#a1a1a1;stroke-width:1;stroke-linecap:butt;stroke-linejoin:miter;stroke-miterlimit:10;stroke-dasharray:none;stroke-opacity:1" transform="translate(517 218.5)"/><path d="M0 0h50" style="fill:none;stroke:#a1a1a1;stroke-width:1;stroke-linecap:butt;stroke-linejoin:miter;stroke-miterlimit:10;stroke-dasharray:none;stroke-opacity:1" transform="translate(517 214.5)"/><path d="M0 0h50" style="fill:none;stroke:#a1a1a1;stroke-width:1;stroke-linecap:butt;stroke-linejoin:miter;stroke-miterlimit:10;stroke-dasharray:none;stroke-opacity:1" transform="translate(517 210.5)"/><path d="M0 0h50" style="fill:none;stroke:#a1a1a1;stroke-width:1;stroke-linecap:butt;stroke-linejoin:miter;stroke-miterlimit:10;stroke-dasharray:none;stroke-opacity:1" transform="translate(517 206.5)"/><path d="M0 0h50" style="fill:none;stroke:#a1a1a1;stroke-width:1;stroke-linecap:butt;stroke-linejoin:miter;stroke-miterlimit:10;stroke-dasharray:none;stroke-opacity:1" transform="translate(517 202.5)"/><path d="M0 0h50" style="fill:none;stroke:#a1a1a1;stroke-width:1;stroke-linecap:butt;stroke-linejoin:miter;stroke-miterlimit:10;stroke-dasharray:none;stroke-opacity:1" transform="translate(517 198.5)"/><path d="M0 0h50" style="fill:none;stroke:#a1a1a1;stroke-width:1;stroke-linecap:butt;stroke-linejoin:miter;stroke-miterlimit:10;stroke-dasharray:none;stroke-opacity:1" transform="translate(573 230.5)"/><path d="M0 0h50" style="fill:none;stroke:#a1a1a1;stroke-width:1;stroke-linecap:butt;stroke-linejoin:miter;stroke-miterlimit:10;stroke-dasharray:none;stroke-opacity:1" transform="translate(573 226.5)"/><path d="M0 0h50" style="fill:none;stroke:#a1a1a1;stroke-width:1;stroke-linecap:butt;stroke-linejoin:miter;stroke-miterlimit:10;stroke-dasharray:none;stroke-opacity:1" transform="translate(573 222.5)"/><path d="M0 0h50" style="fill:none;stroke:#a1a1a1;stroke-width:1;stroke-linecap:butt;stroke-linejoin:miter;stroke-miterlimit:10;stroke-dasharray:none;stroke-opacity:1" transform="translate(573 218.5)"/><path d="M0 0h50" style="fill:none;stroke:#a1a1a1;stroke-width:1;stroke-linecap:butt;stroke-linejoin:miter;stroke-miterlimit:10;stroke-dasharray:none;stroke-opacity:1" transform="translate(573 214.5)"/><path d="M0 0h50" style="fill:none;stroke:#a1a1a1;stroke-width:1;stroke-linecap:butt;stroke-linejoin:miter;stroke-miterlimit:10;stroke-dasharray:none;stroke-opacity:1" transform="translate(573 210.5)"/><path d="M0 0h50" style="fill:none;stroke:#a1a1a1;stroke-width:1;stroke-linecap:butt;stroke-linejoin:miter;stroke-miterlimit:10;stroke-dasharray:none;stroke-opacity:1" transform="translate(573 206.5)"/><path d="M0 0h50" style="fill:none;stroke:#a1a1a1;stroke-width:1;stroke-linecap:butt;stroke-linejoin:miter;stroke-miterlimit:10;stroke-dasharray:none;stroke-opacity:1" transform="translate(573 202.5)"/><path d="M0 0h50" style="fill:none;stroke:#a1a1a1;stroke-width:1;stroke-linecap:butt;stroke-linejoin:miter;stroke-miterlimit:10;stroke-dasharray:none;stroke-opacity:1" transform="translate(573 198.5)"/><path d="M0 0h50" style="fill:none;stroke:#a1a1a1;stroke-width:1;stroke-linecap:butt;stroke-linejoin:miter;stroke-miterlimit:10;stroke-dasharray:none;stroke-opacity:1" transform="translate(629 230.5)"/><path d="M0 0h50" style="fill:none;stroke:#a1a1a1;stroke-width:1;stroke-linecap:butt;stroke-linejoin:miter;stroke-miterlimit:10;stroke-dasharray:none;stroke-opacity:1" transform="translate(629 226.5)"/><path d="M0 0h50" style="fill:none;stroke:#a1a1a1;stroke-width:1;stroke-linecap:butt;stroke-linejoin:miter;stroke-miterlimit:10;stroke-dasharray:none;stroke-opacity:1" transform="translate(629 222.5)"/><path d="M0 0h50" style="fill:none;stroke:#a1a1a1;stroke-width:1;stroke-linecap:butt;stroke-linejoin:miter;stroke-miterlimit:10;stroke-dasharray:none;stroke-opacity:1" transform="translate(629 218.5)"/><path d="M0 0h50" style="fill:none;stroke:#a1a1a1;stroke-width:1;stroke-linecap:butt;stroke-linejoin:miter;stroke-miterlimit:10;stroke-dasharray:none;stroke-opacity:1" transform="translate(629 214.5)"/><path d="M0 0h50" style="fill:none;stroke:#a1a1a1;stroke-width:1;stroke-linecap:butt;stroke-linejoin:miter;stroke-miterlimit:10;stroke-dasharray:none;stroke-opacity:1" transform="translate(629 210.5)"/><path d="M0 0h50" style="fill:none;stroke:#a1a1a1;stroke-width:1;stroke-linecap:butt;stroke-linejoin:miter;stroke-miterlimit:10;stroke-dasharray:none;stroke-opacity:1" transform="translate(629 206.5)"/><path d="M0 0h50" style="fill:none;stroke:#a1a1a1;stroke-width:1;stroke-linecap:butt;stroke-linejoin:miter;stroke-miterlimit:10;stroke-dasharray:none;stroke-opacity:1" transform="translate(629 202.5)"/><path d="M0 0h50" style="fill:none;stroke:#a1a1a1;stroke-width:1;stroke-linecap:butt;stroke-linejoin:miter;stroke-miterlimit:10;stroke-dasharray:none;stroke-opacity:1" transform="translate(629 198.5)"/><path d="M0 0h34" style="fill:none;stroke:#a1a1a1;stroke-width:1;stroke-linecap:butt;stroke-linejoin:miter;stroke-miterlimit:10;stroke-dasharray:none;stroke-opacity:1" transform="translate(171 668.5)"/><path d="M0 0h34" style="fill:none;stroke:#a1a1a1;stroke-width:1;stroke-linecap:butt;stroke-linejoin:miter;stroke-miterlimit:10;stroke-dasharray:none;stroke-opacity:1" transform="translate(171 664.5)"/><path d="M0 0h34" style="fill:none;stroke:#a1a1a1;stroke-width:1;stroke-linecap:butt;stroke-linejoin:miter;stroke-miterlimit:10;stroke-dasharray:none;stroke-opacity:1" transform="translate(171 660.5)"/><path d="M0 0h34" style="fill:none;stroke:#a1a1a1;stroke-width:1;stroke-linecap:butt;stroke-linejoin:miter;stroke-miterlimit:10;stroke-dasharray:none;stroke-opacity:1" transform="translate(171 656.5)"/><path d="M0 0h34" style="fill:none;stroke:#a1a1a1;stroke-width:1;stroke-linecap:butt;stroke-linejoin:miter;stroke-miterlimit:10;stroke-dasharray:none;stroke-opacity:1" transform="translate(171 652.5)"/><path d="M0 0h34" style="fill:none;stroke:#a1a1a1;stroke-width:1;stroke-linecap:butt;stroke-linejoin:miter;stroke-miterlimit:10;stroke-dasharray:none;stroke-opacity:1" transform="translate(171 648.5)"/><path d="M0 0h34" style="fill:none;stroke:#a1a1a1;stroke-width:1;stroke-linecap:butt;stroke-linejoin:miter;stroke-miterlimit:10;stroke-dasharray:none;stroke-opacity:1" transform="translate(171 644.5)"/><path d="M0 0h34" style="fill:none;stroke:#a1a1a1;stroke-width:1;stroke-linecap:butt;stroke-linejoin:miter;stroke-miterlimit:10;stroke-dasharray:none;stroke-opacity:1" transform="translate(171 640.5)"/><path d="M0 0h34" style="fill:none;stroke:#a1a1a1;stroke-width:1;stroke-linecap:butt;stroke-linejoin:miter;stroke-miterlimit:10;stroke-dasharray:none;stroke-opacity:1" transform="translate(171 636.5)"/><path d="M0 0h39" style="fill:none;stroke:#a1a1a1;stroke-width:1;stroke-linecap:butt;stroke-linejoin:miter;stroke-miterlimit:10;stroke-dasharray:none;stroke-opacity:1" transform="translate(121 222.5)"/><path d="M0 0h39" style="fill:none;stroke:#a1a1a1;stroke-width:1;stroke-linecap:butt;stroke-linejoin:miter;stroke-miterlimit:10;stroke-dasharray:none;stroke-opacity:1" transform="translate(121 218.5)"/><path d="M0 0h39" style="fill:none;stroke:#a1a1a1;stroke-width:1;stroke-linecap:butt;stroke-linejoin:miter;stroke-miterlimit:10;stroke-dasharray:none;stroke-opacity:1" transform="translate(121 214.5)"/><path d="M0 0h39" style="fill:none;stroke:#a1a1a1;stroke-width:1;stroke-linecap:butt;stroke-linejoin:miter;stroke-miterlimit:10;stroke-dasharray:none;stroke-opacity:1" transform="translate(121 210.5)"/><path d="M0 0h39" style="fill:none;stroke:#a1a1a1;stroke-width:1;stroke-linecap:butt;stroke-linejoin:miter;stroke-miterlimit:10;stroke-dasharray:none;stroke-opacity:1" transform="translate(121 206.5)"/><path d="M0 0h39" style="fill:none;stroke:#a1a1a1;stroke-width:1;stroke-linecap:butt;stroke-linejoin:miter;stroke-miterlimit:10;stroke-dasharray:none;stroke-opacity:1" transform="translate(121 202.5)"/><path d="M0 0h39" style="fill:none;stroke:#a1a1a1;stroke-width:1;stroke-linecap:butt;stroke-linejoin:miter;stroke-miterlimit:10;stroke-dasharray:none;stroke-opacity:1" transform="translate(121 198.5)"/><path d="M0 0h39" style="fill:none;stroke:#a1a1a1;stroke-width:1;stroke-linecap:butt;stroke-linejoin:miter;stroke-miterlimit:10;stroke-dasharray:none;stroke-opacity:1" transform="translate(121 194.5)"/><path d="M0 0h39" style="fill:none;stroke:#a1a1a1;stroke-width:1;stroke-linecap:butt;stroke-linejoin:miter;stroke-miterlimit:10;stroke-dasharray:none;stroke-opacity:1" transform="translate(121 190.5)"/><path d="m0 0 8.122 10.241a17.774 17.774 0 0 1 5.917-4.693L5.917-4.693A3.775 3.775 0 1 0 0 0" style="fill:#002b59;fill-opacity:1;fill-rule:nonzero;stroke:none" transform="translate(274.764 302.93)"/><path d="M0 0c-.716 6.206 3.75 11.837 9.956 12.554 6.206.716 11.837-3.75 12.554-9.956.716-6.207-3.75-11.838-9.956-12.554C6.347-10.672.716-6.206 0 0m12.987-13.708c8.287.957 14.231 8.451 13.274 16.739-.956 8.287-8.451 14.231-16.738 13.274C1.236 15.349-4.708 7.854-3.752-.433c.957-8.287 8.451-14.231 16.739-13.275" style="fill:#002b59;fill-opacity:1;fill-rule:nonzero;stroke:none" transform="translate(285.274 322.997)"/><path d="m0 0-2.501-.289a6.301 6.301 0 0 1-6.974 5.531l-.289 2.502C-4.938 8.301-.557 4.826 0 0" style="fill:#002b59;fill-opacity:1;fill-rule:nonzero;stroke:none" transform="translate(305.282 325.306)"/><path d="M0 0h-4.121c-3.43 0-6.22-2.79-6.22-6.219v-5.042l.013-.079.347-.108c3.273-1.022 6.116-1.364 8.457-1.364 4.571 0 7.219 1.304 7.383 1.386l.325.165h.034v5.042A6.225 6.225 0 0 1 0 0m-6.918 5.189a4.858 4.858 0 1 1 9.716 0 4.858 4.858 0 0 1-9.716 0m19.882 5.767H6.32a9.971 9.971 0 0 1-3.125-.506 7.23 7.23 0 0 0 2.004-4.995 7.198 7.198 0 0 0-1.101-3.824 8.629 8.629 0 0 0 4.523-7.584v-3.695c.647-.03 1.281-.05 1.886-.05 7.368 0 11.639 2.101 11.904 2.235l.523.266.055-.001V.93c.001 5.528-4.497 10.026-10.025 10.026m-3.322.534a7.83 7.83 0 1 1 0 15.66 7.83 7.83 0 0 1 0-15.66M-8.22 1.631a7.207 7.207 0 0 0-1.1 3.825c0 2.115.914 4.015 2.363 5.344-.556.096-1.124.156-1.707.156h-6.644c-5.529 0-10.026-4.498-10.026-10.025v-8.128l.021-.127.56-.175c4.543-1.419 8.569-2.022 12.01-2.162v3.709A8.63 8.63 0 0 0-8.22 1.631M-19.816 19.32a7.83 7.83 0 1 0 15.661 0 7.83 7.83 0 0 0-15.661 0" style="fill:#fff;fill-opacity:1;fill-rule:nonzero;stroke:none" transform="translate(353.08 182.085)"/><g style="fill:#c5e6f4"><path d="M0 0c-17.916 0-32.439-11.8-32.439-26.357 0-14.557 14.523-26.357 32.439-26.357 1.721 0 3.409.11 5.057.32 6.968-6.968 15.286-8.218 23.327-8.401v1.705c-4.342 2.127-8.109 6.002-8.109 10.431 0 .618.048 1.225.137 1.818 7.336 4.832 12.027 12.213 12.027 20.484C32.439-11.8 17.916 0 0 0" style="fill:#c5e6f4;fill-opacity:1;fill-rule:nonzero;stroke:none" transform="translate(105.44 558.398)"/></g><path d="m0 0-8.601-2.986L-9.895.741c-.881 2.538.166 5.214 2.702 6.095 2.538.88 5.018-.571 5.899-3.109zm4.119 1.43L2.867.995 1.573 4.723c-1.414 4.071-5.66 6.309-9.731 4.895-4.072-1.414-6.018-5.801-4.604-9.872l1.294-3.728-1.362-.473c-.591-.205-1.259-1.232-1.053-1.823l4.941-14.232c.206-.591 1.162-.396 1.753-.191l16.948 5.885c.591.205.618.352.412.943L5.23.359C5.024.95 4.709 1.635 4.119 1.43" style="fill:#fff;fill-opacity:1;fill-rule:nonzero;stroke:none" transform="translate(109.855 536.261)"/><path d="m0 0-3.556 3.113-10.168-8.717a2.083 2.083 0 0 1 1.419-.556h24.611c.548 0 1.045.214 1.412.556L3.556 3.113Z" style="fill:#fff;fill-opacity:1;fill-rule:nonzero;stroke:none" transform="translate(596.474 526.762)"/><path d="M0 0c-.37.345-.866.556-1.419.556H-26.03a2.06 2.06 0 0 1-1.415-.56l13.721-11.759z" style="fill:#fff;fill-opacity:1;fill-rule:nonzero;stroke:none" transform="translate(610.199 540.579)"/><path d="M0 0v-17.059l9.924 8.433z" style="fill:#fff;fill-opacity:1;fill-rule:nonzero;stroke:none" transform="translate(582.101 539.333)"/><path d="m0 0 9.924-8.433V8.632Z" style="fill:#fff;fill-opacity:1;fill-rule:nonzero;stroke:none" transform="translate(600.924 530.707)"/></g></svg>