<svg width="360" height="360" viewBox="0 0 446.181 446.191" xmlns="http://www.w3.org/2000/svg"><g style="display:inline"><path d="M0 0c0-56.996-46.371-103.367-103.367-103.367S-206.735-56.996-206.735 0s46.372 103.367 103.368 103.367C-46.371 103.367 0 57 0 0m149.417 57.807h-27.575c-7.462 0-16.162 6.753-19 14.748a218.257 218.257 0 0 1-9.171 21.928c-3.676 7.595-2.324 18.467 2.952 23.742l19.631 19.631c13.752 13.752 13.752 36.13 0 49.883l-31.863 31.862c-6.663 6.663-15.52 10.331-24.941 10.331-9.422 0-18.279-3.668-24.942-10.331L14.877 199.97c-3.151-3.151-8.399-5.032-14.034-5.032-3.528 0-6.882.721-9.7 2.085a219.627 219.627 0 0 1-21.959 9.191c-7.991 2.837-14.744 11.537-14.744 18.996v27.579c0 19.446-15.822 35.272-35.272 35.272h-45.07c-19.451 0-35.273-15.826-35.273-35.272V225.21c0-7.462-6.752-16.163-14.743-18.996a219.36 219.36 0 0 1-21.94-9.167c-2.771-1.341-6.208-2.077-9.68-2.077-5.655 0-10.919 1.885-14.078 5.043l-19.599 19.592c-6.663 6.663-15.52 10.331-24.946 10.331-9.421 0-18.279-3.668-24.941-10.327l-31.894-31.874c-6.666-6.659-10.335-15.516-10.339-24.938 0-9.421 3.669-18.279 10.331-24.941l19.631-19.631c5.279-5.279 6.635-16.159 2.959-23.758a218.27 218.27 0 0 1-9.159-21.916c-2.837-7.991-11.534-14.744-18.996-14.744h-27.575c-19.451 0-35.272-15.825-35.272-35.272v-45.07c0-19.447 15.821-35.272 35.272-35.272h27.575c7.462 0 16.163-6.749 19-14.74a218.013 218.013 0 0 1 9.167-21.916c3.672-7.595 2.312-18.475-2.971-23.758l-19.631-19.631c-13.752-13.752-13.752-36.13 0-49.883l31.906-31.909c6.662-6.663 15.52-10.331 24.941-10.331 9.422 0 18.279 3.668 24.942 10.331l19.631 19.631c3.158 3.158 8.418 5.044 14.069 5.044 3.524 0 6.871-.718 9.681-2.078a218.752 218.752 0 0 1 21.919-9.166c7.992-2.838 14.744-11.538 14.744-19v-27.579c0-19.447 15.822-35.273 35.273-35.273h45.07c19.45 0 35.272 15.826 35.272 35.273v27.579c0 7.462 6.753 16.162 14.744 18.996a218.874 218.874 0 0 1 21.939 9.167c2.771 1.34 6.208 2.077 9.68 2.077 5.656 0 10.915-1.885 14.074-5.044l19.631-19.631c6.663-6.663 15.516-10.331 24.938-10.331 9.425 0 18.282 3.672 24.945 10.339l31.874 31.894c13.745 13.756 13.745 36.134-.004 49.886L96.65-118.237c-5.275 5.276-6.627 16.155-2.955 23.754a218.893 218.893 0 0 1 9.163 21.928c2.833 7.991 11.53 14.74 18.992 14.74h27.575c19.451 0 35.272 15.825 35.272 35.272v45.07c-.007 19.459-15.833 35.28-35.28 35.28" style="fill:#e5e5e5;fill-opacity:1;fill-rule:nonzero;stroke:none" transform="matrix(.77447 0 0 -.77447 303.14 223.094)"/></g></svg>