<?xml version="1.0" standalone="no"?>
<svg viewBox="0 0 200 200" xmlns="http://www.w3.org/2000/svg">
  <path fill="#005A80" d="M43.2,-66C58,-57.7,73.4,-49.1,76.3,-36.6C79.3,-24.1,69.8,-7.7,67.3,9.7C64.7,27,69.2,45.4,62.1,54.1C55,62.7,36.4,61.7,21,61.9C5.6,62,-6.7,63.3,-21.9,63.8C-37.1,64.3,-55.3,64,-61.1,54.5C-67,45,-60.6,26.4,-62.2,9.4C-63.9,-7.5,-73.7,-22.8,-73.1,-37.2C-72.4,-51.5,-61.3,-64.8,-47.4,-73.5C-33.5,-82.2,-16.7,-86.2,-1.3,-84.2C14.2,-82.3,28.4,-74.3,43.2,-66Z" transform="translate(100 100)" />
</svg>
