<svg xml:space="preserve" width="321.676" height="171.409" xmlns="http://www.w3.org/2000/svg"><defs><clipPath clipPathUnits="userSpaceOnUse" id="a"><path d="M0 128.557h241.257V0H0Z"/></clipPath></defs><g clip-path="url(#a)" transform="matrix(1.33333 0 0 -1.33333 0 171.41)"><path d="m0 0-14.78 29.13c-.28.52-.55.92-.84 1.21-.29.28-.61.49-.96.63-.36.14-.76.22-1.21.24-.45.03-.97.05-1.57.05h-10.55v-19.9l5.92-.02.48-6.51h-6.4v-33.14h12.18V5.95c0 .79-.02 1.65-.08 2.59-.05.95-.12 1.91-.2 2.89l12.14-23.57Zm24.87-28.31h12.19V4.47H24.87Zm1.64 59.57c-.6 0-1.13-.02-1.58-.05-.44-.02-.85-.1-1.2-.24a2.76 2.76 0 0 1-.96-.63c-.29-.29-.57-.69-.84-1.21L11.18 7.98l-.12-.23-7.49-15.5-5.66-11.72c.48-.86 1.11-1.51 1.88-1.97.83-.49 1.78-.74 2.84-.74h1.88c1.07 0 2.01.25 2.85.74.83.49 1.49 1.21 1.98 2.16l15.82 30.63c0-.04-.01-.08-.01-.12l11.91-.13v20.16z" style="fill:#10627a;fill-opacity:1;fill-rule:nonzero;stroke:none" transform="translate(45.74 81.267)"/><path d="M106.55 52.957h13.82v42h-13.82zm-16.76 59.57v-10.96h16.76v-.02h13.82v.02h16.76v10.96z" style="fill:#10627a;fill-opacity:1;fill-rule:nonzero;stroke:none"/><path d="M0 0c-1.15 0-2.13-.31-2.95-.9-.82-.6-1.33-1.3-1.55-2.09l-8.18-31.07c-.24-.95-.48-1.97-.71-3.05-.23-1.07-.46-2.22-.68-3.45-.49 2.43-1.09 4.59-1.8 6.5l-9.56 31.07c-.39.87-.94 1.59-1.68 2.15-.74.56-1.7.84-2.9.84h-4.09c-1.14 0-2.12-.31-2.92-.92-.14-.11-.27-.22-.39-.33l-18.03-58.32h10.46l11.37 36.92c.22.57.42 1.2.61 1.9.19.69.39 1.42.58 2.18.19-.76.38-1.49.57-2.18.19-.7.39-1.33.61-1.9l11.2-36.92h12.51L10.87 0Zm-59.69-2.99c-.25.9-.77 1.62-1.58 2.17-.8.54-1.8.82-3 .82h-11.61l15.97-51.72 7.04 22.78v.01z" style="fill:#10627a;fill-opacity:1;fill-rule:nonzero;stroke:none" transform="translate(214.4 112.528)"/><path d="M39.37 24.527h1.9v14.02h-1.9z" style="fill:#10627a;fill-opacity:1;fill-rule:nonzero;stroke:none"/><path d="M0 0v-1.6h4.55v-12.42h1.88V-1.6h4.54V0Z" style="fill:#10627a;fill-opacity:1;fill-rule:nonzero;stroke:none" transform="translate(45.31 38.547)"/><path d="M58.55 29.657h4.83v1.47h-4.83z" style="fill:#10627a;fill-opacity:1;fill-rule:nonzero;stroke:none"/><path d="M0 0c-.19.4-.45.74-.76 1.01-.32.28-.68.5-1.08.68-.4.18-.81.34-1.23.48-.42.15-.83.29-1.23.42-.41.13-.76.29-1.08.47-.32.19-.57.41-.76.66-.19.26-.29.59-.29.98 0 .3.05.59.17.85.11.27.27.5.49.69.22.2.49.35.81.47.32.11.7.17 1.12.17.45 0 .83-.06 1.15-.17.32-.11.59-.23.81-.36.23-.14.41-.26.56-.37.15-.11.28-.17.39-.17.1 0 .18.03.25.08.07.04.14.12.19.22l.46.9c-.49.46-1.05.82-1.69 1.07-.65.25-1.36.37-2.14.37-.7 0-1.31-.11-1.85-.32-.54-.22-.99-.5-1.36-.86-.37-.36-.65-.77-.84-1.23-.19-.47-.29-.94-.29-1.44 0-.62.1-1.14.29-1.56.19-.42.44-.77.76-1.05.31-.28.67-.51 1.07-.69.4-.17.82-.33 1.23-.46.42-.13.83-.26 1.23-.39.41-.13.77-.28 1.08-.47.31-.18.57-.4.76-.67.19-.28.29-.62.29-1.05 0-.38-.07-.73-.2-1.04-.13-.32-.32-.58-.56-.81-.25-.22-.54-.4-.9-.52-.35-.13-.75-.19-1.2-.19-.36 0-.68.04-.97.1a3.907 3.907 0 0 0-1.37.61c-.17.12-.33.23-.46.34-.14.1-.26.19-.37.26-.11.07-.2.1-.29.1-.09 0-.17-.02-.25-.07a.813.813 0 0 1-.19-.18l-.55-.9c.53-.56 1.17-1.01 1.91-1.34.74-.33 1.57-.49 2.48-.49.75 0 1.41.11 1.99.34.59.23 1.08.54 1.48.94.4.4.7.86.91 1.4.21.54.32 1.11.32 1.73C.29-.88.19-.39 0 0" style="fill:#10627a;fill-opacity:1;fill-rule:nonzero;stroke:none" transform="translate(75.99 30.247)"/><path d="M0 0c-.24-.68-.57-1.26-1-1.73-.43-.47-.95-.83-1.56-1.08-.62-.25-1.3-.38-2.06-.38-.75 0-1.43.13-2.04.38-.61.25-1.14.61-1.57 1.08-.43.47-.77 1.05-1 1.73-.24.68-.35 1.45-.35 2.32 0 .86.11 1.63.35 2.31.23.69.57 1.27 1 1.74.43.47.96.83 1.57 1.09.61.25 1.29.38 2.04.38.76 0 1.44-.13 2.06-.38.61-.26 1.13-.62 1.56-1.09.43-.47.76-1.05 1-1.74.23-.68.35-1.45.35-2.31C.35 1.45.23.68 0 0m1.8 5.2C1.47 6.08 1 6.84.39 7.47c-.61.64-1.33 1.13-2.18 1.48-.86.36-1.8.53-2.83.53s-1.96-.17-2.81-.53c-.85-.35-1.58-.84-2.18-1.48a6.505 6.505 0 0 1-1.41-2.27c-.33-.87-.5-1.84-.5-2.88 0-1.05.17-2.02.5-2.89.33-.88.8-1.64 1.41-2.27.6-.63 1.33-1.12 2.18-1.47.85-.35 1.78-.52 2.81-.52s1.97.17 2.83.52c.85.35 1.57.84 2.18 1.47C1-2.21 1.47-1.45 1.8-.57c.33.87.5 1.84.5 2.89 0 1.04-.17 2.01-.5 2.88" style="fill:#10627a;fill-opacity:1;fill-rule:nonzero;stroke:none" transform="translate(91.55 29.218)"/><path d="M0 0v12.42h-1.89V-1.6h7.95V0Z" style="fill:#10627a;fill-opacity:1;fill-rule:nonzero;stroke:none" transform="translate(100.4 26.127)"/><path d="M0 0v-8.52c0-.59-.08-1.13-.25-1.61-.16-.49-.4-.91-.72-1.27-.32-.35-.7-.62-1.16-.82-.45-.19-.97-.29-1.55-.29-.58 0-1.1.1-1.56.3-.46.2-.85.47-1.17.82-.31.36-.55.78-.72 1.27-.17.48-.25 1.02-.25 1.61V0h-1.89v-8.52c0-.81.13-1.56.39-2.25s.63-1.29 1.11-1.79c.48-.51 1.07-.91 1.76-1.19.69-.29 1.47-.43 2.33-.43.86 0 1.63.14 2.32.43.7.28 1.28.68 1.76 1.19.48.5.85 1.1 1.1 1.79.26.69.39 1.44.39 2.25V0Z" style="fill:#10627a;fill-opacity:1;fill-rule:nonzero;stroke:none" transform="translate(119.09 38.547)"/><path d="M0 0v-1.6h4.55v-12.42h1.89V-1.6h4.53V0Z" style="fill:#10627a;fill-opacity:1;fill-rule:nonzero;stroke:none" transform="translate(124.84 38.547)"/><path d="M139.84 24.527h1.9v14.02h-1.9z" style="fill:#10627a;fill-opacity:1;fill-rule:nonzero;stroke:none"/><path d="M0 0c-.23-.68-.57-1.26-1-1.73-.43-.47-.95-.83-1.56-1.08-.61-.25-1.3-.38-2.05-.38-.75 0-1.43.13-2.05.38-.61.25-1.13.61-1.57 1.08-.43.47-.76 1.05-1 1.73-.23.68-.35 1.45-.35 2.32 0 .86.12 1.63.35 2.31.24.69.57 1.27 1 1.74.44.47.96.83 1.57 1.09.62.25 1.3.38 2.05.38.75 0 1.44-.13 2.05-.38.61-.26 1.13-.62 1.56-1.09.43-.47.77-1.05 1-1.74.24-.68.35-1.45.35-2.31C.35 1.45.24.68 0 0m1.8 5.2C1.47 6.08 1 6.84.39 7.47c-.6.64-1.33 1.13-2.18 1.48-.85.36-1.79.53-2.82.53-1.03 0-1.97-.17-2.82-.53-.85-.35-1.57-.84-2.18-1.48a6.505 6.505 0 0 1-1.41-2.27c-.33-.87-.5-1.84-.5-2.88 0-1.05.17-2.02.5-2.89.33-.88.8-1.64 1.41-2.27.61-.63 1.33-1.12 2.18-1.47.85-.35 1.79-.52 2.82-.52 1.03 0 1.97.17 2.82.52.85.35 1.58.84 2.18 1.47C1-2.21 1.47-1.45 1.8-.57c.33.87.5 1.84.5 2.89 0 1.04-.17 2.01-.5 2.88" style="fill:#10627a;fill-opacity:1;fill-rule:nonzero;stroke:none" transform="translate(157.92 29.218)"/><path d="M0 0v-9.93c0-.14.01-.29.02-.45l.03-.5-8.1 10.55c-.06.07-.1.12-.15.16-.05.05-.09.08-.14.1-.04.03-.09.04-.15.05-.06.01-.13.02-.22.02h-.98v-14.02h1.67v9.99c0 .13-.01.28-.01.44l-.03.48 8.1-10.56c.1-.13.2-.22.3-.27.1-.05.23-.08.38-.08h.95V0Z" style="fill:#10627a;fill-opacity:1;fill-rule:nonzero;stroke:none" transform="translate(174.57 38.547)"/><path d="M0 0c-.19.4-.45.74-.76 1.01-.32.28-.68.5-1.08.68-.4.18-.81.34-1.23.48-.42.15-.83.29-1.23.42s-.76.29-1.08.47c-.31.19-.57.41-.76.66-.19.26-.29.59-.29.98 0 .3.06.59.17.85.11.27.27.5.49.69.22.2.49.35.81.47.33.11.7.17 1.12.17.45 0 .84-.06 1.15-.17.32-.11.59-.23.81-.36.23-.14.42-.26.57-.37.15-.11.28-.17.39-.17.09 0 .18.03.25.08.06.04.13.12.19.22l.46.9c-.49.46-1.06.82-1.7 1.07-.64.25-1.35.37-2.14.37-.69 0-1.31-.11-1.85-.32-.54-.22-.99-.5-1.36-.86-.37-.36-.65-.77-.84-1.23-.19-.47-.29-.94-.29-1.44 0-.62.1-1.14.29-1.56.19-.42.45-.77.76-1.05s.67-.51 1.07-.69c.41-.17.82-.33 1.24-.46l1.23-.39c.4-.13.76-.28 1.07-.47.32-.18.57-.4.76-.67.19-.28.29-.62.29-1.05 0-.38-.07-.73-.2-1.04-.13-.32-.31-.58-.56-.81-.24-.22-.54-.4-.89-.52-.35-.13-.76-.19-1.21-.19-.35 0-.68.04-.96.1-.29.07-.55.16-.77.26-.23.11-.43.22-.6.35-.18.12-.33.23-.47.34-.14.1-.26.19-.37.26-.11.07-.2.1-.29.1-.09 0-.17-.02-.25-.07a1.07 1.07 0 0 1-.19-.18l-.54-.9c.52-.56 1.16-1.01 1.9-1.34.75-.33 1.57-.49 2.49-.49.74 0 1.4.11 1.99.34.58.23 1.07.54 1.47.94.4.4.71.86.92 1.4.2.54.31 1.11.31 1.73C.29-.88.19-.39 0 0" style="fill:#10627a;fill-opacity:1;fill-rule:nonzero;stroke:none" transform="translate(189.42 30.247)"/><path d="m0 0 84.371.125L168.742 0 84.371-.125Z" style="fill:#10627a;fill-opacity:1;fill-rule:nonzero;stroke:none" transform="translate(30.17 16.03)"/></g></svg>
