<svg width="612.099" height="259.581" viewBox="0 0 161.951 68.681" xmlns="http://www.w3.org/2000/svg"><path fill="none" d="M0 0h161.951v68.68H0z"/><g fill="#f49700"><path d="M42.886 40.79c-.5.148-.897.203-1.42.203-4.278 0-10.56-14.951-10.56-19.927 0-1.832.433-2.443 1.045-2.968-5.237.611-11.52 2.533-13.53 4.976-.434.612-.697 1.57-.697 2.794 0 7.768 8.292 25.395 14.14 25.395 2.706 0 7.268-4.448 11.022-10.472M40.154 17.576c5.411 0 10.826.873 10.826 3.927 0 6.196-3.93 13.706-5.935 13.706-3.58 0-8.031-9.952-8.031-14.929 0-2.269.872-2.704 3.14-2.704"/></g><path d="M69.123 28.556v22.75H65.95v-22.75h-5.615v-2.772h14.401v2.772zM85.821 39.457v11.85H82.54v-11.85l-6.525-13.673h3.5l4.812 10.61 4.813-10.61h3.318zM102.52 41.68h-3.063v9.626h-3.17V25.784s3.134-.255 6.161-.255c5.542 0 7.146 3.427 7.146 7.912 0 5.542-1.897 8.24-7.074 8.24zm.365-13.526c-2.005 0-3.427.219-3.427.219v10.646h3.427c2.042 0 3.463-1.349 3.463-5.322 0-3.646-.875-5.543-3.463-5.543zM121.407 51.561c-6.017 0-7.62-4.375-7.62-13.307 0-8.568 1.604-12.724 7.62-12.724s7.62 4.155 7.62 12.724c0 8.932-1.604 13.307-7.62 13.307zm0-23.37c-3.282 0-4.375 2.224-4.375 10.245 0 7.839 1.093 10.464 4.375 10.464 3.28 0 4.374-2.625 4.374-10.464 0-8.021-1.094-10.245-4.374-10.245zM138.834 51.561c-1.786 0-4.448-.546-4.777-.618v-2.736c.875.183 3.136.584 4.74.584 1.86 0 3.063-1.532 3.063-4.339 0-3.39-.548-5.068-3.136-5.068h-2.989v-2.662h2.625c2.953 0 3.1-3.025 3.1-4.483 0-2.88-.912-4.047-2.736-4.047-1.604 0-3.427.402-4.484.62v-2.663c.401-.073 2.552-.62 4.411-.62 3.756 0 5.907 1.605 5.907 7.038 0 2.48-.765 4.667-2.771 5.286 2.37.328 3.208 2.662 3.208 6.235.001 5.432-2.114 7.473-6.161 7.473z"/></svg>
