<svg xml:space="preserve" width="2666.666" height="906.667" xmlns="http://www.w3.org/2000/svg"><defs><clipPath clipPathUnits="userSpaceOnUse" id="a"><path d="M0 680h2000V0H0Z"/></clipPath><clipPath clipPathUnits="userSpaceOnUse" id="b"><path d="M0 680h2000V0H0Z"/></clipPath></defs><g clip-path="url(#a)" transform="matrix(1.33333 0 0 -1.33333 0 906.667)"><path d="M0 0h-2.637c-13.559 0-15.441 3.39-15.441 20.716v81.73H0c39.168 0 46.326-28.621 46.326-50.845C46.326 28.625 39.168 0 0 0m-158.94 52.357v50.089h15.441c16.948 0 24.483-11.673 24.483-25.232 0-13.184-7.535-24.857-24.483-24.857zm157.81 61.387h-67.419v-7.152c21.09 0 24.479-4.52 24.479-31.264V27.117c0-26.739-3.389-31.636-24.479-31.636-16.192 2.259-27.117 10.924-42.184 27.495l-17.322 18.83c23.349 4.146 35.778 18.834 35.778 35.408 0 20.712-17.7 36.53-50.845 36.53h-66.289v-7.152c21.09 0 24.479-4.52 24.479-31.264V27.117c0-26.739-3.389-31.636-24.479-31.636v-7.154h74.95v7.154c-21.089 0-24.479 4.897-24.479 31.636v13.559h6.401l41.806-52.349H-1.13c53.861 0 77.211 28.621 77.211 62.9 0 34.271-23.35 62.517-77.211 62.517" style="fill:#32373c;fill-opacity:1;fill-rule:nonzero;stroke:none" transform="translate(1115.61 270.96)"/><path d="m0 0 25.988 76.841c7.535 22.219 4.145 28.621-19.96 28.621v7.535h70.809v-7.535c-23.728 0-29.377-5.65-38.794-33.145L-4.898-56.494h-4.893l-38.42 117.89-39.168-117.89h-4.898l-41.805 128.811c-9.04 27.495-15.067 33.145-36.913 33.145v7.535h83.616v-7.535c-22.224 0-28.251-5.272-20.338-28.621L-82.486 0l38.042 112.997h7.158z" style="fill:#32373c;fill-opacity:1;fill-rule:nonzero;stroke:none" transform="translate(696.418 309.375)"/><path d="M0 0c-34.648 0-46.703-31.259-46.703-55.738 0-24.862 12.055-55.747 46.703-55.747 35.031 0 47.082 30.885 47.082 55.747C47.082-31.259 35.031 0 0 0m0-123.536c-41.427 0-75.328 30.507-75.328 67.798 0 36.908 33.901 67.419 75.328 67.419 41.432 0 75.329-30.511 75.329-67.419 0-37.291-33.897-67.798-75.329-67.798" style="fill:#32373c;fill-opacity:1;fill-rule:nonzero;stroke:none" transform="translate(824.47 377.925)"/><path d="M0 0h-21.468v-65.538H0c21.094 0 30.885 14.689 30.885 32.389C30.885-15.071 21.094 0 0 0m8.287-141.996v-7.531h-86.249v7.531c25.236 0 29.755 6.401 29.755 44.07v60.258c0 37.668-4.519 43.691-29.755 43.691v7.536H0c38.794 0 60.266-19.965 60.266-46.708 0-25.988-21.472-46.326-60.266-46.326h-21.468v-18.451c0-37.669 4.52-44.07 29.755-44.07" style="fill:#32373c;fill-opacity:1;fill-rule:nonzero;stroke:none" transform="translate(1276.428 408.814)"/><path d="M0 0v50.089h15.44c16.948 0 24.484-11.673 24.484-25.232C39.924 11.673 32.388 0 15.44 0Zm199.611-28.63-1.882-6.779c-3.389-12.429-7.535-16.948-34.274-16.948h-5.275c-19.582 0-22.972 4.519-22.972 31.263v17.322c29.377 0 31.637-2.633 31.637-22.22h7.157v56.121h-7.157c0-19.586-2.26-22.22-31.637-22.22v42.18h20.711c26.744 0 30.886-4.52 34.275-16.948l1.886-7.153h6.023l-2.633 35.399H84.737v-7.153c21.09 0 24.479-4.519 24.479-31.263V-25.24c0-24.462-2.881-30.624-19.508-31.502-15.805 2.412-26.656 11.034-41.501 27.361L30.88-10.551C54.234-6.405 66.663 8.283 66.663 24.857c0 20.712-17.7 36.53-50.845 36.53h-66.289v-7.153c21.089 0 24.479-4.519 24.479-31.263V-25.24c0-26.739-3.39-31.636-24.479-31.636v-7.154h74.95v7.154C3.39-56.876 0-51.979 0-25.24v13.559h6.401L48.207-64.03h154.794l2.26 35.4z" style="fill:#32373c;fill-opacity:1;fill-rule:nonzero;stroke:none" transform="translate(1395.826 323.317)"/><path d="M0 0c-15.066 0-28.251 7.909-33.901 12.807-1.882-1.886-5.271-7.536-6.023-12.807h-7.157v51.975h7.531c3.016-24.858 20.338-39.546 42.562-39.546 12.05 0 21.846 6.779 21.846 18.078 0 9.791-8.666 17.327-24.106 24.48l-21.468 10.169c-15.067 7.161-26.365 19.59-26.365 36.16 0 18.078 16.948 33.519 40.302 33.519 12.429 0 22.971-4.52 29.377-9.791 1.881 1.508 3.763 5.654 4.898 10.173h7.153V90.769h-7.91c-2.637 17.704-12.428 32.393-32.388 32.393-10.547 0-20.343-6.028-20.343-15.445 0-9.791 7.91-15.062 25.992-23.349l20.712-10.169c18.082-8.661 25.235-22.602 25.235-33.901C45.947 16.57 25.232 0 0 0" style="fill:#32373c;fill-opacity:1;fill-rule:nonzero;stroke:none" transform="translate(1671.896 254.389)"/><path d="M0 0c-15.066 0-28.251 7.909-33.901 12.807-1.881-1.886-5.271-7.536-6.023-12.807h-7.158v51.975h7.532c3.016-24.858 20.338-39.546 42.562-39.546 12.05 0 21.846 6.779 21.846 18.078 0 9.791-8.666 17.327-24.106 24.48l-21.468 10.169c-15.066 7.161-26.366 19.59-26.366 36.16 0 18.078 16.949 33.519 40.303 33.519 12.429 0 22.971-4.52 29.377-9.791 1.881 1.508 3.763 5.654 4.893 10.173h7.158V90.769h-7.91c-2.638 17.704-12.429 32.393-32.388 32.393-10.547 0-20.343-6.028-20.343-15.445 0-9.791 7.909-15.062 25.992-23.349l20.712-10.169c18.082-8.661 25.235-22.602 25.235-33.901C45.947 16.57 25.231 0 0 0" style="fill:#32373c;fill-opacity:1;fill-rule:nonzero;stroke:none" transform="translate(1785.782 254.389)"/><path d="M0 0c-93.608 0-169.492-75.884-169.492-169.492 0-93.607 75.884-169.491 169.492-169.491 93.608 0 169.492 75.884 169.492 169.491C169.492-75.884 93.608 0 0 0m0-10.169c21.513 0 42.377-4.212 62.012-12.517a159.238 159.238 0 0 0 27.059-14.687 160.504 160.504 0 0 0 23.587-19.461 160.541 160.541 0 0 0 19.46-23.586 159.319 159.319 0 0 0 14.688-27.059c8.305-19.636 12.516-40.5 12.516-62.013 0-21.512-4.211-42.376-12.516-62.012a159.319 159.319 0 0 0-14.688-27.059 160.541 160.541 0 0 0-19.46-23.586 160.504 160.504 0 0 0-23.587-19.461 159.238 159.238 0 0 0-27.059-14.687C42.377-324.602 21.513-328.814 0-328.814c-21.513 0-42.377 4.212-62.012 12.517a159.276 159.276 0 0 0-27.059 14.687 160.504 160.504 0 0 0-23.587 19.461 160.541 160.541 0 0 0-19.46 23.586 159.319 159.319 0 0 0-14.688 27.059c-8.305 19.636-12.516 40.5-12.516 62.012 0 21.513 4.211 42.377 12.516 62.013a159.319 159.319 0 0 0 14.688 27.059 160.541 160.541 0 0 0 19.46 23.586 160.504 160.504 0 0 0 23.587 19.461 159.276 159.276 0 0 0 27.059 14.687C-42.377-14.381-21.513-10.169 0-10.169" style="fill:#32373c;fill-opacity:1;fill-rule:nonzero;stroke:none" transform="translate(338.983 510.509)"/><g><path d="M0 0c.606-4.498.95-9.324.95-14.523 0-14.327-2.685-30.439-10.744-50.588l-43.139-124.727c41.992 24.481 70.231 69.973 70.231 122.08C17.298-43.201 11.022-20.116 0 0m-121.464-80.112-42.384-123.139a141.135 141.135 0 0 1 39.903-5.755c16.448 0 32.226 2.839 46.906 8.008a12.946 12.946 0 0 0-1.014 1.946zm92.869 19.477c0 17.462-6.272 29.547-11.643 38.952-7.161 11.64-13.875 21.488-13.875 33.127 0 12.982 9.845 25.067 23.719 25.067.627 0 1.22-.075 1.829-.114-25.129 23.025-58.61 37.083-95.38 37.083-49.347 0-92.757-25.32-118.013-63.66 3.317-.105 6.441-.171 9.09-.171 14.771 0 37.645 1.795 37.645 1.795 7.61.446 8.51-10.74.903-11.639 0 0-7.654-.897-16.164-1.342l51.432-152.992 30.914 92.7-22.004 60.292c-7.61.445-14.814 1.342-14.814 1.342-7.614.449-6.722 12.085.896 11.639 0 0 23.32-1.795 37.198-1.795 14.77 0 37.649 1.795 37.649 1.795 7.613.446 8.509-10.74.899-11.639 0 0-7.661-.897-16.164-1.342l51.044-151.827 14.571 46.17c6.473 20.178 10.268 34.474 10.268 46.559m-236.593-7.123c0-55.904 32.486-104.221 79.607-127.113l-67.377 184.594a140.698 140.698 0 0 1-12.23-57.481" style="fill:#32373c;fill-opacity:1;fill-rule:nonzero;stroke:none" transform="translate(462.928 408.78)"/></g></g></svg>
