<?xml version="1.0" encoding="UTF-8" standalone="no"?>
<!-- Created with Inkscape (http://www.inkscape.org/) -->

<svg
   width="1.2093725in"
   height="1.2093241in"
   viewBox="0 0 116.09976 116.09512"
   version="1.1"
   id="SVGRoot"
   sodipodi:docname="illustration_zahnrad_small.svg"
   inkscape:version="1.1 (c68e22c387, 2021-05-23)"
   xmlns:inkscape="http://www.inkscape.org/namespaces/inkscape"
   xmlns:sodipodi="http://sodipodi.sourceforge.net/DTD/sodipodi-0.dtd"
   xmlns="http://www.w3.org/2000/svg"
   xmlns:svg="http://www.w3.org/2000/svg">
  <sodipodi:namedview
     id="namedview829"
     pagecolor="#ffffff"
     bordercolor="#666666"
     borderopacity="1.0"
     inkscape:pageshadow="2"
     inkscape:pageopacity="0.0"
     inkscape:pagecheckerboard="0"
     inkscape:document-units="px"
     showgrid="false"
     inkscape:zoom="1"
     inkscape:cx="88.5"
     inkscape:cy="212.5"
     inkscape:window-width="1920"
     inkscape:window-height="1017"
     inkscape:window-x="1912"
     inkscape:window-y="-8"
     inkscape:window-maximized="1"
     inkscape:current-layer="layer1"
     units="in"
     fit-margin-top="0"
     fit-margin-left="0"
     fit-margin-right="0"
     fit-margin-bottom="0" />
  <defs
     id="defs824">
    <clipPath
       clipPathUnits="userSpaceOnUse"
       id="clipPath2964">
      <path
         d="M 0,800 H 800 V 0 H 0 Z"
         id="path2962" />
    </clipPath>
    <clipPath
       clipPathUnits="userSpaceOnUse"
       id="clipPath2964-9">
      <path
         d="M 0,800 H 800 V 0 H 0 Z"
         id="path2962-8" />
    </clipPath>
    <clipPath
       clipPathUnits="userSpaceOnUse"
       id="clipPath2964-3">
      <path
         d="M 0,800 H 800 V 0 H 0 Z"
         id="path2962-9" />
    </clipPath>
  </defs>
  <g
     inkscape:groupmode="layer"
     id="layer1"
     inkscape:label="Layer 1"
     transform="translate(-122.16388,-135.93771)">
    <path
       d="m 197.95102,193.98372 c 0,9.77959 -7.95688,17.73803 -17.73648,17.73803 -9.78115,0 -17.73803,-7.95689 -17.73803,-17.73803 0,-9.78115 7.95688,-17.73804 17.73803,-17.73804 9.7796,0 17.73648,7.95689 17.73648,17.73804 m 24.3307,14.80899 c 0.2579,-0.72684 1.12143,-1.34022 1.52802,-1.34022 h 5.34809 c 5.02049,0 9.10581,-4.08377 9.10581,-9.10542 v -8.72671 c 0,-5.02165 -4.08532,-9.10542 -9.10581,-9.10542 h -5.34654 c -0.4066,0 -1.27013,-0.61338 -1.52802,-1.34022 -0.53749,-1.51292 -1.16713,-3.02004 -1.87305,-4.47565 -0.32916,-0.68114 -0.15451,-1.70848 0.13049,-1.99387 l 3.80187,-3.80186 c 3.54977,-3.55094 3.54977,-9.32731 0,-12.87709 l -6.16903,-6.16902 c -1.71971,-1.71932 -4.00671,-2.6665 -6.43931,-2.6665 -2.433,0 -4.72,0.94873 -6.43932,2.66805 l -3.80032,3.80031 c -0.11849,0.11811 -0.52509,0.30785 -1.10942,0.30785 -0.33225,0 -0.65404,-0.0639 -0.88483,-0.17619 -1.45833,-0.70554 -2.96389,-1.33518 -4.47527,-1.87111 -0.72839,-0.2579 -1.34177,-1.12298 -1.34177,-1.52803 v -5.34809 c 0,-5.02204 -4.08531,-9.10581 -9.10542,-9.10581 h -8.7267 c -5.02011,0 -9.10543,4.08377 -9.10543,9.10581 v 5.34809 c 0,0.4066 -0.61338,1.26858 -1.34022,1.52648 -1.51912,0.53903 -3.02623,1.17022 -4.47836,1.87266 -0.22924,0.11114 -0.55258,0.17464 -0.88483,0.17464 -0.58434,0 -0.98977,-0.18819 -1.10787,-0.3063 l -3.80187,-3.80031 c -1.71932,-1.71932 -4.00633,-2.6665 -6.43932,-2.6665 -2.4326,0 -4.71806,0.94718 -6.43776,2.6665 l -6.16903,6.16902 c -3.54978,3.55133 -3.54978,9.32886 0,12.87864 l 3.80032,3.80031 c 0.285,0.285 0.46119,1.31272 0.13204,1.99232 -0.70593,1.45716 -1.33557,2.96428 -1.87305,4.4772 -0.2579,0.72684 -1.12298,1.34138 -1.52802,1.34138 h -5.3481 c -5.02049,0 -9.10581,4.08416 -9.10581,9.10581 v 8.72632 c 0,5.02049 4.08378,9.10581 9.10427,9.10581 h 5.34809 c 0.40659,0 1.27012,0.61338 1.52802,1.34022 0.53748,1.51447 1.16713,3.02004 1.87305,4.47527 0.32915,0.68153 0.15451,1.70886 -0.13049,1.99425 l -3.80187,3.80186 c -1.71932,1.71932 -2.66649,4.00633 -2.66649,6.43932 0,2.43261 0.94717,4.71806 2.66804,6.43893 l 6.16903,6.16787 c 1.7197,1.71931 4.00671,2.66649 6.43931,2.66649 2.433,0 4.71845,-0.94718 6.43777,-2.66649 l 3.80187,-3.80187 c 0.1181,-0.11811 0.52509,-0.30785 1.10942,-0.30785 0.33225,0 0.65404,0.0635 0.88483,0.1758 1.45833,0.70593 2.96389,1.33557 4.47527,1.8715 0.72838,0.2579 1.34176,1.12298 1.34176,1.52803 v 5.34809 c 0,5.02204 4.08532,9.10581 9.10543,9.10581 h 8.72632 c 5.02049,0 9.1058,-4.08377 9.1058,-9.10581 v -5.34654 c 0,-0.4066 0.61338,-1.26858 1.34022,-1.52648 1.51293,-0.53748 3.01849,-1.16712 4.47527,-1.87305 0.23079,-0.1123 0.55413,-0.1758 0.88638,-0.1758 0.58433,0 0.98977,0.18974 1.10942,0.30785 l 3.80187,3.80186 c 1.71932,1.71932 4.00632,2.6665 6.43931,2.6665 2.43261,0 4.71806,-0.94718 6.43777,-2.6665 l 6.16903,-6.16941 c 3.54977,-3.55094 3.54977,-9.32731 0,-12.87708 l -3.80032,-3.79993 c -0.285,-0.28539 -0.4612,-1.31428 -0.13204,-1.99426 0.70592,-1.46452 1.33556,-2.97008 1.8715,-4.48146"
       style="fill:#e5e5e5;fill-opacity:1;fill-rule:nonzero;stroke:none;stroke-width:0.387233"
       id="path2972" />
  </g>
</svg>
